<svg width="64" height="64" viewBox="0 0 64 64" fill="none" xmlns="http://www.w3.org/2000/svg">
<path fill-rule="evenodd" clip-rule="evenodd" d="M42.69 12H15.36C14.986 12.0373 14.6395 12.2127 14.388 12.492C14.1365 12.7712 13.9981 13.1342 14 13.51V23H16V16H42V51H31V53.74C30.9983 54.191 30.8588 54.6307 30.6 55H42.69C42.8632 55.0014 43.035 54.9681 43.1952 54.9021C43.3554 54.8361 43.5008 54.7388 43.6229 54.6158C43.7449 54.4928 43.8411 54.3467 43.9059 54.186C43.9707 54.0253 44.0027 53.8532 44 53.68V13.51C44.0123 13.1395 43.8841 12.7781 43.6412 12.498C43.3982 12.218 43.0585 12.0401 42.69 12V12ZM29 14.74C28.8695 14.74 28.7418 14.7013 28.6333 14.6288C28.5248 14.5562 28.4402 14.4532 28.3902 14.3326C28.3403 14.212 28.3272 14.0793 28.3527 13.9512C28.3781 13.8232 28.441 13.7056 28.5333 13.6133C28.6256 13.521 28.7432 13.4581 28.8712 13.4327C28.9993 13.4072 29.132 13.4203 29.2526 13.4702C29.3732 13.5202 29.4762 13.6048 29.5488 13.7133C29.6213 13.8219 29.66 13.9495 29.66 14.08C29.66 14.1667 29.6429 14.2525 29.6097 14.3326C29.5766 14.4126 29.528 14.4854 29.4667 14.5467C29.4054 14.608 29.3326 14.6566 29.2526 14.6898C29.1725 14.7229 29.0867 14.74 29 14.74Z" fill="white"/>
<path fill-rule="evenodd" clip-rule="evenodd" d="M23 11V10C23 9.73478 23.1054 9.48043 23.2929 9.29289C23.4804 9.10536 23.7348 9 24 9H52C52.2652 9 52.5196 9.10536 52.7071 9.29289C52.8946 9.48043 53 9.73478 53 10V52C53 52.2652 52.8946 52.5196 52.7071 52.7071C52.5196 52.8946 52.2652 53 52 53H45C45 53 45 53.67 45 53.79C45.0089 54.0395 44.9457 54.2863 44.818 54.5009C44.6903 54.7155 44.5035 54.8888 44.28 55H52C52.7956 55 53.5587 54.6839 54.1213 54.1213C54.6839 53.5587 55 52.7956 55 52V10C55 9.20435 54.6839 8.44129 54.1213 7.87868C53.5587 7.31607 52.7956 7 52 7H24C23.2044 7 22.4413 7.31607 21.8787 7.87868C21.3161 8.44129 21 9.20435 21 10V11H23Z" fill="white"/>
<path fill-rule="evenodd" clip-rule="evenodd" d="M28.74 24H9.27C8.93726 24.0075 8.62007 24.1424 8.3838 24.3768C8.14752 24.6112 8.01016 24.9273 8 25.26V53.8C8.0155 54.1254 8.15643 54.4322 8.39322 54.6559C8.63 54.8796 8.94424 55.003 9.27 55H28.74C29.0702 54.9876 29.3836 54.8509 29.6172 54.6172C29.8509 54.3836 29.9876 54.0702 30 53.74V25.26C29.99 24.929 29.854 24.6143 29.6198 24.3802C29.3857 24.146 29.071 24.01 28.74 24V24ZM18.95 25.25C19.035 25.25 19.1182 25.2752 19.1889 25.3225C19.2596 25.3697 19.3147 25.4369 19.3473 25.5154C19.3798 25.594 19.3883 25.6805 19.3717 25.7639C19.3551 25.8473 19.3142 25.9239 19.2541 25.9841C19.1939 26.0442 19.1173 26.0851 19.0339 26.1017C18.9505 26.1183 18.864 26.1098 18.7854 26.0773C18.7069 26.0447 18.6397 25.9896 18.5925 25.9189C18.5452 25.8482 18.52 25.765 18.52 25.68C18.52 25.5677 18.5639 25.4598 18.6424 25.3794C18.7209 25.2991 18.8277 25.2526 18.94 25.25H18.95ZM19 54.5C18.8022 54.5 18.6089 54.4414 18.4444 54.3315C18.28 54.2216 18.1518 54.0654 18.0761 53.8827C18.0004 53.7 17.9806 53.4989 18.0192 53.3049C18.0578 53.1109 18.153 52.9327 18.2929 52.7929C18.4327 52.653 18.6109 52.5578 18.8049 52.5192C18.9989 52.4806 19.2 52.5004 19.3827 52.5761C19.5654 52.6518 19.7216 52.78 19.8315 52.9444C19.9414 53.1089 20 53.3022 20 53.5C20 53.7652 19.8946 54.0196 19.7071 54.2071C19.5196 54.3946 19.2652 54.5 19 54.5ZM29 52H9V27H29V52Z" fill="white"/>
</svg>
