<svg width="64" height="64" viewBox="0 0 64 64" fill="none" xmlns="http://www.w3.org/2000/svg">
<path d="M39.81 11H24.19C23.3448 11.0026 22.5349 11.3396 21.9372 11.9372C21.3396 12.5349 21.0026 13.3448 21 14.19V51.81C21.0026 52.6552 21.3396 53.4651 21.9372 54.0628C22.5349 54.6604 23.3448 54.9974 24.19 55H39.81C40.6552 54.9974 41.4651 54.6604 42.0628 54.0628C42.6604 53.4651 42.9974 52.6552 43 51.81V14.19C42.9974 13.3448 42.6604 12.5349 42.0628 11.9372C41.4651 11.3396 40.6552 11.0026 39.81 11ZM34.08 12.15C34.1453 12.15 34.2091 12.1694 34.2633 12.2056C34.3176 12.2419 34.3599 12.2934 34.3849 12.3537C34.4099 12.414 34.4164 12.4804 34.4037 12.5444C34.3909 12.6084 34.3595 12.6672 34.3133 12.7133C34.2672 12.7595 34.2084 12.7909 34.1444 12.8037C34.0804 12.8164 34.014 12.8099 33.9537 12.7849C33.8934 12.7599 33.8419 12.7176 33.8056 12.6633C33.7694 12.6091 33.75 12.5453 33.75 12.48C33.75 12.3925 33.7848 12.3085 33.8467 12.2467C33.9085 12.1848 33.9925 12.15 34.08 12.15V12.15ZM31 12.22H33C33.0663 12.22 33.1299 12.2463 33.1768 12.2932C33.2237 12.3401 33.25 12.4037 33.25 12.47C33.25 12.5363 33.2237 12.5999 33.1768 12.6468C33.1299 12.6937 33.0663 12.72 33 12.72H31C30.9337 12.72 30.8701 12.6937 30.8232 12.6468C30.7763 12.5999 30.75 12.5363 30.75 12.47C30.75 12.4037 30.7763 12.3401 30.8232 12.2932C30.8701 12.2463 30.9337 12.22 31 12.22ZM42 51.81C42 52.3908 41.7693 52.9479 41.3586 53.3586C40.9479 53.7693 40.3908 54 39.81 54H24.19C23.6092 54 23.0521 53.7693 22.6414 53.3586C22.2307 52.9479 22 52.3908 22 51.81V14.19C22 13.6092 22.2307 13.0521 22.6414 12.6414C23.0521 12.2307 23.6092 12 24.19 12H26.5C26.6326 12 26.7598 12.0527 26.8536 12.1464C26.9473 12.2402 27 12.3674 27 12.5V13C27 13.2652 27.1054 13.5196 27.2929 13.7071C27.4804 13.8946 27.7348 14 28 14H36C36.2652 14 36.5196 13.8946 36.7071 13.7071C36.8946 13.5196 37 13.2652 37 13V12.5C37 12.3674 37.0527 12.2402 37.1464 12.1464C37.2402 12.0527 37.3674 12 37.5 12H39.81C40.0976 12 40.3824 12.0566 40.6481 12.1667C40.9138 12.2768 41.1552 12.4381 41.3586 12.6414C41.5619 12.8448 41.7232 13.0862 41.8333 13.3519C41.9434 13.6176 42 13.9024 42 14.19V51.81Z" fill="white"/>
</svg>
