<svg width="64" height="64" viewBox="0 0 64 64" fill="none" xmlns="http://www.w3.org/2000/svg">
<path d="M55.82 52.0001V24.5001C55.824 24.3029 55.7883 24.1068 55.715 23.9237C55.6417 23.7405 55.5323 23.574 55.3932 23.434C55.2542 23.2941 55.0884 23.1835 54.9057 23.109C54.7231 23.0344 54.5273 22.9974 54.33 23.0001H9.67C9.47273 22.9974 9.27693 23.0344 9.09426 23.109C8.9116 23.1835 8.74581 23.2941 8.60677 23.434C8.46774 23.574 8.3583 23.7405 8.28498 23.9237C8.21166 24.1068 8.17595 24.3029 8.18 24.5001V52.0001H3V53.4301C3.64 54.4301 7.43 55.0001 8.8 55.0001H55.2C56.57 55.0001 60.36 54.4601 61 53.4301V52.0001H55.82ZM54.5 52.0001H9.56V25.3101H54.5V52.0001Z" fill="white"/>
</svg>
