<svg width="62" height="30" viewBox="0 0 62 30" fill="none" xmlns="http://www.w3.org/2000/svg">
<path fill-rule="evenodd" clip-rule="evenodd" d="M31 0C13.8176 0 0 6.69706 0 15.0342C0 23.303 13.8174 30 31 30C48.1824 30 62 23.303 62 15.0342C62 6.69703 48.1826 0 31 0ZM2.86353 15.0342C2.86353 9.56719 13.4595 2.73348 31 2.73348C48.5405 2.73348 59.1365 9.56719 59.1365 15.0342C59.1365 20.4328 48.5405 27.2665 31 27.2665C13.4595 27.2665 2.86353 20.4328 2.86353 15.0342ZM28.6375 0.683368C28.9954 0.683368 29.3533 0.956713 29.3533 1.36673C29.3533 1.70843 29.0669 2.05012 28.6375 2.05012C28.2795 2.05012 27.9214 1.77678 27.9214 1.43508C27.9214 1.02506 28.2078 0.683368 28.6375 0.683368ZM26.2031 0.820039C26.6328 0.820039 26.9192 1.09339 26.9907 1.43508C26.9907 1.8451 26.7043 2.1868 26.3464 2.1868C25.9167 2.25511 25.5588 1.91345 25.5588 1.57175C25.5588 1.16174 25.8452 0.888393 26.2031 0.820039ZM23.8406 1.09338C24.1985 1.02506 24.5566 1.29841 24.6282 1.64011C24.6997 2.05012 24.4133 2.39179 23.9839 2.39179C23.6257 2.46014 23.2678 2.1868 23.1963 1.8451C23.1248 1.43508 23.4111 1.09338 23.8406 1.09338ZM21.478 1.36673C21.8359 1.29841 22.1941 1.57176 22.2656 1.91345C22.3372 2.32347 22.0508 2.66517 21.6929 2.73349C21.2632 2.80184 20.9053 2.52846 20.8337 2.1868C20.8337 1.77678 21.0483 1.43508 21.478 1.36673ZM19.1155 1.77678C19.4734 1.70842 19.9031 1.98177 19.9746 2.32347C20.0461 2.66517 19.7598 3.07518 19.4019 3.1435C19.0439 3.21186 18.6143 3.00683 18.5427 2.59681C18.4712 2.25512 18.6858 1.91345 19.1155 1.77678ZM16.7529 2.32347C17.1824 2.25512 17.5403 2.46014 17.6121 2.80184C17.7551 3.21185 17.5403 3.55352 17.1108 3.62187C16.7529 3.75854 16.3948 3.55352 16.2517 3.1435C16.1802 2.80184 16.3948 2.46014 16.7529 2.32347ZM14.4619 3.00683C14.8198 2.87015 15.2493 3.07518 15.3926 3.41685C15.4641 3.75854 15.321 4.16856 14.8914 4.30523C14.5334 4.37358 14.1038 4.23691 14.0322 3.82689C13.8892 3.48519 14.1038 3.07518 14.4619 3.00683ZM12.2424 3.75854C12.6003 3.62187 12.9583 3.82689 13.1016 4.16856C13.2446 4.51025 13.1016 4.92027 12.7437 5.05695C12.3855 5.19362 11.9561 4.98862 11.813 4.64693C11.6697 4.30523 11.813 3.89521 12.2424 3.75854ZM10.0229 4.71525C10.3093 4.51026 10.739 4.64693 10.9536 4.98862C11.0969 5.33029 10.9536 5.74031 10.5957 5.94533C10.2378 6.082 9.80835 5.94533 9.66504 5.60363C9.52197 5.26197 9.66504 4.85195 10.0229 4.71525ZM7.87524 5.80866C8.16162 5.60363 8.66284 5.67199 8.80591 6.01369C9.02075 6.35535 8.94922 6.76536 8.59106 6.97039C8.23315 7.17541 7.80371 7.03874 7.58887 6.69704C7.37402 6.4237 7.51733 6.01368 7.87524 5.80866ZM5.79907 7.03874C6.15698 6.83372 6.58643 6.90204 6.80127 7.24374C7.08765 7.51708 7.01611 7.9271 6.6582 8.20047C6.37183 8.40546 5.94214 8.33714 5.65576 7.99545C5.44092 7.72211 5.5127 7.31209 5.79907 7.03874ZM3.9375 8.61049C4.22388 8.33714 4.65356 8.33714 4.93994 8.61049C5.22632 8.88383 5.22632 9.29385 4.93994 9.56719C4.65356 9.84054 4.22388 9.84054 3.9375 9.56719C3.65112 9.29385 3.65112 8.88383 3.9375 8.61049ZM2.36255 10.3873C2.57715 10.1139 3.00684 10.0456 3.36475 10.2506C3.65112 10.4556 3.72266 10.8656 3.50806 11.2073C3.29321 11.4806 2.86353 11.549 2.50562 11.344C2.21924 11.1389 2.14771 10.7289 2.36255 10.3873ZM1.14526 12.5741C1.28857 12.2324 1.71826 12.0273 2.07617 12.164C2.43408 12.3007 2.64893 12.6424 2.50562 12.9841C2.36255 13.3941 2.00464 13.5308 1.57495 13.4624C1.21704 13.3257 1.0022 12.9157 1.14526 12.5741ZM31 27.9499C31.3579 27.9499 31.7161 28.2916 31.7161 28.6333C31.7161 29.0433 31.3579 29.3167 31 29.3167C30.5706 29.3167 30.2842 29.0433 30.2842 28.6333C30.2842 28.2916 30.5706 27.9499 31 27.9499ZM28.6375 27.9499C29.0669 27.9499 29.3533 28.2916 29.3533 28.6333C29.3533 29.0433 28.9954 29.3167 28.6375 29.3167C28.2078 29.3167 27.9214 28.975 27.9214 28.5649C27.9214 28.2232 28.2795 27.9499 28.6375 27.9499ZM26.3464 27.8132C26.7043 27.8132 26.9907 28.1549 26.9907 28.5649C26.9192 28.9066 26.6328 29.18 26.2031 29.18C25.8452 29.1116 25.5588 28.8383 25.5588 28.4283C25.5588 28.0866 25.9167 27.8132 26.3464 27.8132ZM23.9839 27.6082C24.4133 27.6082 24.6997 27.9499 24.6282 28.3599C24.5566 28.7016 24.1987 28.9749 23.8406 28.9749C23.4111 28.9066 23.1248 28.5649 23.1963 28.1549C23.2678 27.8132 23.626 27.5399 23.9839 27.6082ZM21.6929 27.2665C22.0508 27.3349 22.3372 27.6765 22.2656 28.0866C22.1941 28.4283 21.8359 28.7016 21.478 28.6333C21.0486 28.5649 20.8337 28.2232 20.9053 27.8132C20.9053 27.4715 21.2632 27.1982 21.6929 27.2665ZM19.4019 26.8565C19.7598 26.9248 20.0461 27.3349 19.9746 27.6765C19.9031 28.0182 19.4734 28.2916 19.1155 28.2232C18.6858 28.1549 18.4712 27.7449 18.5427 27.4032C18.6143 26.9932 19.0439 26.7882 19.4019 26.8565ZM17.1108 26.3782C17.5403 26.4465 17.7551 26.8565 17.6121 27.1982C17.5403 27.5399 17.1824 27.7449 16.7529 27.6765C16.395 27.5399 16.1802 27.1982 16.2517 26.8565C16.395 26.4465 16.7529 26.2415 17.1108 26.3782ZM14.8914 25.6948C15.321 25.8315 15.4641 26.2415 15.3926 26.5831C15.2493 26.9248 14.8198 27.1299 14.4619 26.9932C14.104 26.9248 13.8892 26.5148 14.0322 26.1731C14.104 25.8315 14.5334 25.6264 14.8914 25.6948ZM12.7437 24.9431C13.1016 25.0797 13.2449 25.4898 13.1016 25.8315C12.9585 26.1731 12.6003 26.3781 12.2424 26.2415C11.813 26.1048 11.6697 25.6948 11.813 25.3531C11.9561 25.0114 12.3857 24.8064 12.7437 24.9431ZM10.5957 24.0547C10.9539 24.2597 11.0969 24.6697 10.9539 25.0114C10.739 25.3531 10.3093 25.4898 10.0229 25.2847C9.66504 25.1481 9.52197 24.738 9.66504 24.3964C9.80835 24.0547 10.2378 23.918 10.5957 24.0547ZM8.59106 23.0296C8.94922 23.2346 9.02075 23.6447 8.80591 23.9863C8.66284 24.328 8.16162 24.3964 7.87524 24.1914C7.51733 24.0547 7.37402 23.5763 7.58887 23.303C7.80371 22.9613 8.23315 22.8246 8.59106 23.0296ZM6.6582 21.7995C7.01611 22.0729 7.08765 22.4829 6.80127 22.7563C6.58643 23.0979 6.15698 23.1663 5.79907 22.9613C5.5127 22.6879 5.44092 22.2779 5.65576 22.0046C5.94214 21.6629 6.37183 21.5946 6.6582 21.7995ZM4.93994 20.4328C5.22632 20.7062 5.22632 21.1162 4.93994 21.3895C4.65356 21.6629 4.22388 21.6629 3.9375 21.3895C3.65112 21.1162 3.65112 20.7062 3.9375 20.4328C4.22388 20.1595 4.65356 20.1595 4.93994 20.4328ZM3.50806 18.7927C3.7229 19.1344 3.65112 19.5444 3.36475 19.7494C3.00684 19.9545 2.57739 19.8861 2.36255 19.6128C2.14771 19.2711 2.21924 18.861 2.50562 18.656C2.86377 18.451 3.29321 18.5194 3.50806 18.7927ZM2.50562 17.016C2.64893 17.3576 2.43408 17.7677 2.07617 17.836C1.71826 17.9727 1.28857 17.7677 1.14551 17.426C1.0022 17.0843 1.21704 16.6743 1.57495 16.5376C2.00464 16.4693 2.36255 16.6059 2.50562 17.016ZM2.14771 14.9658C2.14771 15.3759 1.86133 15.6492 1.43188 15.7176C1.07373 15.7176 0.71582 15.3759 0.71582 15.0342C0.71582 14.6241 1.0022 14.3508 1.36011 14.3508C1.78979 14.2825 2.14771 14.6241 2.14771 14.9658ZM59.8523 14.9658C59.8523 14.6241 60.2102 14.2825 60.5684 14.3508C60.9978 14.3508 61.2842 14.6241 61.2842 15.0342C61.2842 15.3759 60.9263 15.7176 60.5684 15.7176C60.1387 15.6492 59.8523 15.3759 59.8523 14.9658ZM59.4944 17.016C59.5659 16.6059 59.9956 16.4693 60.3535 16.5376C60.783 16.6743 60.9263 17.0843 60.8547 17.426C60.7114 17.7677 60.282 17.9727 59.9238 17.836C59.5659 17.7677 59.3511 17.3576 59.4944 17.016ZM58.4919 18.7927C58.7068 18.5194 59.1365 18.451 59.4944 18.656C59.7808 18.861 59.8523 19.2711 59.6377 19.6128C59.4229 19.8861 58.9932 19.9545 58.6353 19.7494C58.3489 19.5444 58.2056 19.1344 58.4919 18.7927ZM56.9885 20.4328C57.2749 20.1595 57.7761 20.1595 58.0625 20.4328C58.2773 20.7062 58.2773 21.1162 58.0625 21.3895C57.7761 21.6629 57.2749 21.6629 56.9885 21.3895C56.7737 21.1162 56.7737 20.7062 56.9885 20.4328ZM55.342 21.7995C55.6284 21.5946 56.0579 21.6629 56.2727 22.0046C56.5591 22.2779 56.4873 22.6879 56.1294 22.9613C55.843 23.1663 55.4136 23.0979 55.1272 22.7563C54.9124 22.4829 54.9839 22.0729 55.342 21.7995ZM53.4089 23.0296C53.6953 22.8246 54.1965 22.9613 54.3396 23.303C54.5544 23.5763 54.4829 24.0547 54.1248 24.1914C53.7668 24.3964 53.3374 24.328 53.1226 23.9863C52.9077 23.6447 53.051 23.2346 53.4089 23.0296ZM51.3328 24.0547C51.6907 23.918 52.1201 24.0547 52.335 24.3964C52.4783 24.738 52.335 25.1481 51.9771 25.2847C51.6191 25.4898 51.1895 25.3531 51.0464 25.0114C50.8315 24.6697 50.9746 24.2597 51.3328 24.0547ZM49.2563 24.9431C49.6145 24.8064 50.0439 25.0114 50.1873 25.3531C50.3303 25.6948 50.1155 26.1048 49.7576 26.2415C49.3997 26.3781 48.97 26.1731 48.8269 25.8315C48.6836 25.4898 48.8984 25.0797 49.2563 24.9431ZM47.0371 25.6948C47.4666 25.6264 47.8245 25.8315 47.9678 26.1731C48.1108 26.5148 47.8962 26.9248 47.5383 26.9932C47.1086 27.1299 46.7507 26.9248 46.6074 26.5831C46.4644 26.2415 46.679 25.8315 47.0371 25.6948ZM44.8176 26.3782C45.2473 26.2415 45.6052 26.4465 45.7483 26.8565C45.8201 27.1982 45.6052 27.5399 45.1755 27.6766C44.8176 27.7449 44.4597 27.5399 44.3164 27.1982C44.2449 26.8565 44.4597 26.4465 44.8176 26.3782ZM42.5981 26.8565C42.9563 26.7882 43.3142 26.9932 43.4573 27.4032C43.5291 27.7449 43.2427 28.1549 42.8845 28.2232C42.4551 28.2916 42.0972 28.0182 42.0254 27.6766C41.9539 27.3349 42.1687 26.9248 42.5981 26.8565ZM40.3071 27.2665C40.6653 27.1982 41.0232 27.4715 41.0947 27.8132C41.1663 28.2232 40.8799 28.5649 40.522 28.6333C40.0925 28.7016 39.7344 28.4283 39.6628 28.0866C39.6628 27.6766 39.8777 27.3349 40.3071 27.2665ZM37.9446 27.6082C38.3743 27.5399 38.7322 27.8132 38.8037 28.1549C38.8037 28.5649 38.5173 28.9066 38.1594 28.975C37.7297 28.975 37.3718 28.7016 37.3718 28.3599C37.3003 27.9499 37.5867 27.6082 37.9446 27.6082ZM35.6536 27.8132C36.0833 27.8132 36.3696 28.0866 36.4412 28.4283C36.4412 28.8383 36.1548 29.1116 35.7969 29.18C35.3672 29.18 35.0093 28.9066 35.0093 28.5649C34.9377 28.1549 35.2957 27.8132 35.6536 27.8132ZM33.3625 27.9499C33.7207 27.9499 34.0786 28.2232 34.0786 28.5649C34.0786 28.975 33.7922 29.3167 33.3625 29.3167C33.0046 29.3167 32.6467 29.0433 32.6467 28.6333C32.6467 28.2916 32.9331 27.9499 33.3625 27.9499ZM31 2.05024C30.5706 2.05024 30.2842 1.70854 30.2842 1.36685C30.2842 0.956829 30.5706 0.683487 31 0.683487C31.3579 0.683487 31.7161 0.956829 31.7161 1.36685C31.7161 1.70854 31.3579 2.05024 31 2.05024ZM33.3625 2.05024C32.9331 2.05024 32.6467 1.70854 32.6467 1.36685C32.6467 0.956829 33.0046 0.683487 33.3625 0.683487C33.7922 0.683487 34.0786 1.02518 34.0786 1.4352C34.0786 1.7769 33.7205 2.05024 33.3625 2.05024ZM35.6536 2.18691C35.2957 2.18691 34.9377 1.84522 35.0093 1.4352C35.0093 1.0935 35.3672 0.820158 35.7969 0.820158C36.1548 0.88851 36.4412 1.16185 36.4412 1.57187C36.3696 1.91357 36.0833 2.25523 35.6536 2.18691ZM37.9446 2.39191C37.5867 2.39191 37.3003 2.05024 37.3718 1.64023C37.3718 1.29853 37.7297 1.02518 38.1594 1.0935C38.5173 1.0935 38.8037 1.4352 38.8037 1.84522C38.7322 2.18691 38.3743 2.46026 37.9446 2.39191ZM40.3071 2.7336C39.8777 2.66528 39.6628 2.32359 39.6628 1.91357C39.7344 1.57187 40.0925 1.29853 40.522 1.36685C40.8799 1.4352 41.1663 1.77689 41.0947 2.18691C41.0232 2.52858 40.6653 2.80196 40.3071 2.7336ZM42.5981 3.14362C42.1687 3.0753 41.9539 2.66528 42.0254 2.32359C42.0972 1.98189 42.4551 1.70854 42.8845 1.7769C43.2427 1.91357 43.5291 2.25523 43.4573 2.59693C43.3142 3.00695 42.9563 3.21197 42.5981 3.14362ZM44.8176 3.62199C44.4597 3.55363 44.2449 3.21197 44.3164 2.80196C44.4597 2.46026 44.8176 2.25523 45.1755 2.32359C45.6052 2.46026 45.8198 2.80195 45.7483 3.14362C45.6052 3.55363 45.2473 3.75866 44.8176 3.62199ZM47.0371 4.30535C46.679 4.16868 46.4644 3.75866 46.6074 3.41696C46.7507 3.0753 47.1086 2.87027 47.5381 3.00695C47.8962 3.0753 48.1108 3.48532 47.9678 3.82701C47.8245 4.23703 47.4666 4.3737 47.0371 4.30535ZM49.2563 5.05706C48.8984 4.92039 48.6836 4.51037 48.8269 4.16868C48.97 3.82701 49.3997 3.62199 49.7576 3.75866C50.1155 3.89533 50.3303 4.30535 50.1873 4.64705C50.0439 4.98874 49.6145 5.19373 49.2563 5.05706ZM51.3328 5.94545C50.9746 5.74042 50.8315 5.33041 51.0464 4.98874C51.1895 4.64705 51.6191 4.51038 51.9771 4.71537C52.335 4.85207 52.4783 5.26209 52.335 5.60375C52.1201 5.94545 51.6907 6.08212 51.3328 5.94545ZM53.4089 6.97051C53.051 6.76548 52.9077 6.35547 53.1226 6.0138C53.3374 5.6721 53.7668 5.60375 54.1248 5.80878C54.4827 6.0138 54.5544 6.42382 54.3396 6.69716C54.1965 7.03886 53.6953 7.17553 53.4089 6.97051ZM55.342 8.20059C54.9839 7.92722 54.9124 7.5172 55.1272 7.24385C55.4136 6.90216 55.843 6.83384 56.1294 7.03886C56.4873 7.31221 56.5591 7.72222 56.2727 7.99557C56.0579 8.33726 55.6284 8.40558 55.342 8.20059ZM56.9885 9.56731C56.7737 9.29397 56.7737 8.88395 56.9885 8.61061C57.2749 8.33727 57.7761 8.33727 58.0625 8.61061C58.2773 8.88395 58.2773 9.29397 58.0625 9.56731C57.7761 9.84066 57.2749 9.84066 56.9885 9.56731ZM58.4919 11.2074C58.2056 10.8657 58.3489 10.4557 58.6353 10.2507C58.9932 10.0457 59.4229 10.114 59.6375 10.3874C59.8523 10.729 59.7808 11.1391 59.4944 11.3441C59.1365 11.5491 58.7068 11.4808 58.4919 11.2074ZM59.4944 12.9842C59.3511 12.6425 59.5659 12.3008 59.9238 12.1641C60.282 12.0274 60.7114 12.2325 60.8547 12.5742C60.9263 12.9158 60.783 13.3258 60.3535 13.4625C59.9956 13.5309 59.5659 13.3942 59.4944 12.9842ZM31.0002 29.6584C13.7461 29.6584 0.35791 22.9614 0.35791 15.0343C0.35791 7.03887 13.7458 0.341807 31.0002 0.341807C48.1826 0.341807 61.6423 7.03889 61.6423 15.0343C61.6423 22.9614 48.1829 29.6584 31.0002 29.6584ZM29.425 7.58546V7.24376L30.3557 7.24376V8.67883H28.1365V8.2005H27.2056V9.56722H33.0764C34.0071 9.56722 34.7947 8.81551 34.7947 7.8588C34.7947 7.44879 34.5798 7.03877 34.2935 6.69707C34.5798 6.42373 34.7231 6.08204 34.7231 5.67202C34.7231 4.78363 33.9355 4.10027 33.0764 4.10027H27.2056V5.39867H28.1365V4.98866H30.3557V6.21871H29.425V5.87701H28.4944V7.58546H29.425ZM26.9192 17.426V16.6743H25.9885V15.3076H28.5659V17.426C28.5659 19.0661 27.7068 20.0912 25.7737 20.0912C24.1987 20.0912 22.9099 18.9294 22.9099 17.426V13.5991C22.9099 12.0957 24.1987 10.934 25.7737 10.934C27.7068 10.934 28.5659 11.959 28.5659 13.5991V13.7358H26.9192V13.5991C26.9192 12.9841 26.418 12.5057 25.7737 12.5741C25.2009 12.5741 24.7715 13.0524 24.7715 13.5991V17.426C24.7715 17.9044 25.2009 18.3827 25.7737 18.4511C26.418 18.4511 26.9192 18.041 26.9192 17.426ZM12.3857 15.3075C13.03 15.5809 13.5312 16.2643 13.5312 17.3577C13.5312 18.5194 12.6006 19.8861 11.1687 19.8861H7.87524V11.139H10.9539C12.6006 11.139 13.3164 12.5057 13.3164 13.4624C13.3164 14.0091 12.9585 14.9658 12.3857 15.3075ZM19.0439 11.139V17.426C19.0439 17.9044 18.686 18.3144 18.1133 18.3144C17.5405 18.3144 17.1824 17.9044 17.1824 17.426V11.139H15.2495V17.426C15.2495 18.9294 16.5381 20.0912 18.1133 20.0912C19.6167 20.0912 20.9053 18.9294 20.9053 17.426V11.139H19.0439ZM29.8545 19.8861L32.217 11.139H34.7944L36.9424 19.8861H35.0093L34.6514 18.3144H32.217L31.8591 19.8861H29.8545ZM41.095 19.9545H39.2334V12.7107H37.3721V11.139H43.0278V12.7107H41.095V19.9545ZM48.0393 19.9545H46.1064V12.7107H44.2451V11.139H49.9009V12.7107H48.0393V19.9545ZM51.3328 11.139H53.1941V19.8861H51.3328V11.139ZM33.7207 5.60366C33.7207 5.94536 33.4343 6.21871 33.0764 6.21871H31.573V4.98866H33.0764C33.4343 4.98866 33.7207 5.262 33.7207 5.60366ZM33.7922 7.92712C33.7922 8.33718 33.5059 8.67883 33.0764 8.67883H31.573V7.24376H33.0764C33.5059 7.24376 33.7922 7.58546 33.7922 7.92712ZM9.73682 18.5194V15.9909L10.739 15.9909C11.1687 15.9909 11.6699 16.5376 11.6699 17.221C11.6699 17.9043 11.3118 18.5194 10.739 18.5194H9.73682ZM9.73682 12.5057V14.5558H10.4526C11.0972 14.5558 11.3835 14.2141 11.3835 13.5308C11.3835 12.8474 10.9539 12.5057 10.4526 12.5057H9.73682ZM33.5059 12.8474L34.365 16.7426H32.5752L33.5059 12.8474Z" fill="white"/>
</svg>
