<svg width="30" height="30" viewBox="0 0 30 30" fill="none" xmlns="http://www.w3.org/2000/svg">
<path fill-rule="evenodd" clip-rule="evenodd" d="M14.9832 30C11.0094 30 7.19835 28.4196 4.38846 25.6066C1.57858 22.7935 0 18.9782 0 15C0 11.0217 1.57858 7.20643 4.38846 4.39339C7.19835 1.58035 11.0094 0 14.9832 0C15.9977 0.000963644 17.0095 0.104115 18.0034 0.307894C18.2178 0.351864 18.406 0.479289 18.5265 0.662137C18.647 0.844985 18.6901 1.06828 18.6461 1.28289C18.6022 1.49751 18.4749 1.68587 18.2923 1.80653C18.1097 1.9272 17.8866 1.97028 17.6722 1.92631C14.5852 1.2995 11.3762 1.78691 8.61381 3.3022C5.85142 4.81749 3.714 7.26282 2.58027 10.2049C1.44655 13.147 1.38972 16.3959 2.41986 19.3759C3.45 22.3559 5.50059 24.8746 8.2083 26.4858C10.916 28.097 14.106 28.6966 17.2131 28.1784C20.3201 27.6601 23.1436 26.0575 25.1833 23.6545C27.223 21.2515 28.3471 18.2033 28.3565 15.0498C28.366 11.8964 27.2601 8.84149 25.2348 6.42631C25.0936 6.2588 25.0247 6.04201 25.0432 5.82363C25.0617 5.60525 25.166 5.40317 25.3334 5.26184C25.5007 5.1205 25.7172 5.0515 25.9354 5.07001C26.1535 5.08851 26.3554 5.19301 26.4965 5.36052C28.3311 7.55019 29.5026 10.219 29.8732 13.0527C30.2438 15.8865 29.7981 18.7672 28.5884 21.3559C27.3788 23.9446 25.4556 26.1335 23.0453 27.6648C20.635 29.1962 17.8379 30.0064 14.9832 30ZM13.13 5.37631C15.0001 5.04293 16.9268 5.26298 18.6739 6.00951C20.421 6.75604 21.9126 7.9966 22.9659 9.57917C24.0192 11.1617 24.5884 13.0176 24.6038 14.9192C24.6193 16.8208 24.0802 18.6857 23.0528 20.2852C22.0253 21.8847 20.554 23.1493 18.8193 23.9242C17.0846 24.699 15.1617 24.9504 13.2864 24.6475C11.4111 24.3446 9.66479 23.5006 8.2615 22.2188C6.85821 20.9371 5.8589 19.2734 5.38605 17.4316C5.35913 17.3279 5.35286 17.2199 5.36762 17.1138C5.38237 17.0077 5.41785 16.9056 5.47204 16.8132C5.52623 16.7208 5.59806 16.64 5.68343 16.5755C5.7688 16.5109 5.86605 16.4638 5.9696 16.4368C6.07316 16.4099 6.18101 16.4036 6.28699 16.4184C6.39297 16.4331 6.49501 16.4687 6.58727 16.5229C6.67954 16.5772 6.76023 16.6491 6.82473 16.7345C6.88924 16.82 6.9363 16.9174 6.96322 17.021C7.47742 19.0024 8.71783 20.7174 10.4377 21.8247C12.1575 22.9321 14.2307 23.3507 16.2449 22.9973C17.4563 22.7824 18.6031 22.2946 19.5985 21.5707C20.5938 20.8467 21.4117 19.9057 21.9903 18.8187C22.5689 17.7318 22.8931 16.5273 22.9382 15.2964C22.9834 14.0656 22.7484 12.8406 22.251 11.714C21.7536 10.5875 21.0068 9.58892 20.0672 8.79384C19.1276 7.99877 18.0196 7.42801 16.8272 7.12472C15.6348 6.82144 14.3891 6.79357 13.1843 7.04322C11.9796 7.29288 10.8473 7.81352 9.87311 8.56578C9.69952 8.69978 9.47987 8.75926 9.26247 8.73113C9.04507 8.703 8.84774 8.58956 8.71389 8.41578C8.58003 8.24199 8.52062 8.02209 8.54872 7.80445C8.57682 7.58681 8.69013 7.38926 8.86372 7.25525C10.1139 6.29411 11.5775 5.64952 13.13 5.37631ZM4.82615 12.3552C4.82615 11.8322 4.98109 11.3208 5.27137 10.8859C5.56165 10.451 5.97424 10.112 6.45696 9.91183C6.93968 9.71166 7.47085 9.65928 7.9833 9.76133C8.49576 9.86338 8.96647 10.1153 9.33593 10.4851C9.70539 10.855 9.95699 11.3263 10.0589 11.8393C10.1609 12.3523 10.1085 12.8841 9.9086 13.3673C9.70865 13.8506 9.37004 14.2637 8.93561 14.5543C8.50117 14.8449 7.99041 15 7.46792 15C6.76728 15 6.09534 14.7213 5.59991 14.2254C5.10448 13.7294 4.82615 13.0567 4.82615 12.3552ZM17.6249 15C17.6249 15.5231 17.47 16.0344 17.1797 16.4693C16.8894 16.9042 16.4768 17.2432 15.9941 17.4434C15.5114 17.6436 14.9802 17.6959 14.4678 17.5939C13.9553 17.4918 13.4846 17.24 13.1151 16.8701C12.7457 16.5002 12.4941 16.029 12.3921 15.5159C12.2902 15.0029 12.3425 14.4711 12.5425 13.9879C12.7424 13.5046 13.081 13.0916 13.5155 12.801C13.9499 12.5104 14.4607 12.3552 14.9832 12.3552C15.6838 12.3552 16.3557 12.6339 16.8512 13.1299C17.3466 13.6259 17.6249 14.2986 17.6249 15ZM10.6459 10.8474C10.5745 10.7635 10.5214 10.6656 10.49 10.5599C10.4586 10.4542 10.4497 10.3432 10.4638 10.2338C10.4779 10.1245 10.5148 10.0194 10.5719 9.92515C10.6291 9.83094 10.7054 9.74975 10.7958 9.68683C11.9332 8.79882 13.3265 8.30184 14.7686 8.26973C16.2107 8.23762 17.6247 8.67209 18.8005 9.5086C19.9763 10.3451 20.8512 11.539 21.2952 12.913C21.7392 14.2869 21.7287 15.7676 21.2651 17.1351C20.8015 18.5026 19.9097 19.6839 18.7221 20.5035C17.5345 21.3231 16.1145 21.7373 14.673 21.6846C13.2315 21.6319 11.8454 21.1151 10.7207 20.2109C9.59602 19.3067 8.79266 18.0635 8.43 16.6658C8.37562 16.4564 8.40655 16.234 8.51599 16.0474C8.62543 15.8609 8.80441 15.7255 9.01355 15.671C9.2227 15.6166 9.44488 15.6476 9.63122 15.7571C9.81756 15.8667 9.95279 16.0459 10.0072 16.2552C10.2472 17.1923 10.7508 18.0407 11.4583 18.6996C12.1657 19.3585 13.0473 19.8003 13.9981 19.9724C14.949 20.1445 15.9292 20.0397 16.8224 19.6705C17.7155 19.3012 18.484 18.6831 19.0365 17.8895C19.7181 16.9002 20.0252 15.7002 19.9026 14.5048C19.7801 13.3094 19.236 12.1968 18.368 11.3668C17.5 10.5367 16.3648 10.0436 15.1664 9.97591C13.9679 9.90821 12.7846 10.2704 11.8288 10.9974C11.7447 11.0716 11.6458 11.127 11.5387 11.16C11.4315 11.1929 11.3186 11.2026 11.2074 11.1884C11.0962 11.1742 10.9893 11.1365 10.8939 11.0776C10.7984 11.0188 10.7166 10.9403 10.6538 10.8474H10.6459ZM22.1593 5.74736C21.6368 5.74736 21.126 5.59225 20.6916 5.30164C20.2572 5.01104 19.9186 4.59798 19.7186 4.11472C19.5187 3.63146 19.4664 3.09969 19.5683 2.58667C19.6702 2.07364 19.9218 1.60239 20.2913 1.23252C20.6607 0.862646 21.1315 0.61076 21.6439 0.508712C22.1564 0.406664 22.6875 0.459039 23.1703 0.659212C23.653 0.859386 24.0656 1.19837 24.3558 1.63329C24.6461 2.06822 24.8011 2.57955 24.8011 3.10263C24.8011 3.80405 24.5227 4.47675 24.0273 4.97274C23.5319 5.46872 22.8599 5.74736 22.1593 5.74736Z" fill="white"/>
</svg>
