<svg width="30" height="31" viewBox="0 0 30 31" fill="none" xmlns="http://www.w3.org/2000/svg">
<g clip-path="url(#clip0_254_636)">
<path fill-rule="evenodd" clip-rule="evenodd" d="M18.8794 11.6852C20.882 9.7341 22.9021 7.64479 23.4649 6.18727C24.3509 3.89249 23.6592 1.42565 21.3146 0.370147C18.7012 -0.806398 15.0622 0.925667 14.963 4.0957C14.913 5.69285 14.989 7.92875 15.0807 10.0443C15.0491 10.0438 15.0175 10.0435 14.9858 10.0435C14.8079 10.0435 14.6319 10.052 14.4584 10.0687C14.1414 7.63191 13.9202 6.00827 13.6067 3.96495C13.1904 1.25196 10.3938 0.577671 8.44598 1.38319C6.56433 2.16137 5.66158 4.84938 7.08965 6.97155C7.99459 8.31634 9.443 9.76345 11.2658 11.5142C11.1178 11.6536 10.9777 11.8012 10.8465 11.9563C9.23297 10.5572 7.57919 9.22356 6.16338 8.4095C4.20431 7.28307 1.53928 7.74123 0.440313 9.81479C-0.863094 12.274 0.871359 15.4856 3.74845 15.4031C5.40045 15.3558 7.4309 15.2293 9.60216 15.0671C9.59646 15.1675 9.59357 15.2687 9.59357 15.3705C9.59357 15.5035 9.5985 15.6353 9.6082 15.7659C7.38587 16.0786 5.60981 16.4168 4.44315 16.8084C2.25082 17.5443 1.47275 19.683 2.42519 21.449C3.31617 23.1011 5.66584 23.9895 7.28814 22.6582C8.76814 21.4436 9.72684 20.595 11.1163 19.0803C11.2655 19.2321 11.4237 19.3752 11.5902 19.5087C10.8878 20.3988 10.2138 21.1701 9.60965 21.8615C8.64557 22.9649 7.85957 23.8645 7.42047 24.7171C6.25211 26.9857 6.95305 29.9654 9.3061 30.7303C11.9572 31.5921 13.9625 30.3061 14.5991 28.0504C15.0041 26.9774 14.7734 23.642 14.5408 20.6794C14.6876 20.6913 14.836 20.6973 14.9858 20.6973C15.0546 20.6973 15.1231 20.6961 15.1913 20.6936C15.4286 23.1685 15.8033 25.9744 16.3193 27.0701C17.1853 28.9088 19.2092 30.1383 21.2154 28.9982C23.0978 27.9284 23.3756 26.1433 22.2078 23.9981C21.7576 23.171 20.0479 21.2796 18.3568 19.5284C18.4936 19.42 18.625 19.3051 18.7504 19.1843C20.7075 21.0722 23.0015 23.1361 24.3581 23.6386C26.7706 24.5322 29.122 23.6779 29.8165 21.3183C30.4529 19.1561 29.4065 17.0753 27.1038 16.5143C26.0451 16.2563 23.9231 16.2395 21.8011 16.2228C21.3 16.2188 20.7989 16.2148 20.3118 16.2078C20.3471 15.9872 20.3686 15.7621 20.3756 15.5335C20.8224 15.4924 21.253 15.454 21.665 15.4173L21.6661 15.4172L21.6674 15.4171L21.6682 15.417C23.6084 15.2436 25.1366 15.1071 26.0122 14.9129C28.0632 14.4581 30.2466 12.9521 29.0556 9.97813C28.3483 8.21194 26.0708 7.73252 23.8619 8.7363C22.9531 9.14925 21.0423 10.6378 19.2898 12.1609C19.1624 11.9945 19.0253 11.8356 18.8794 11.6852ZM14.4513 19.5534C14.6264 19.575 14.8048 19.5862 14.9858 19.5862C17.3427 19.5862 19.2533 17.6988 19.2533 15.3705C19.2533 13.0421 17.3427 11.1547 14.9858 11.1547C14.8562 11.1547 14.728 11.1604 14.6013 11.1715L14.6014 11.1724C13.6297 11.2605 12.7523 11.6703 12.0793 12.293C12.0776 12.2915 12.0759 12.2899 12.0742 12.2883C11.9368 12.415 11.8078 12.5507 11.6882 12.6943C11.6902 12.696 11.6922 12.6978 11.6942 12.6995C11.1692 13.3321 10.8269 14.1183 10.7467 14.9795C10.7433 14.9797 10.7398 14.98 10.7364 14.9803C10.7244 15.1087 10.7183 15.2389 10.7183 15.3705C10.7183 15.4527 10.7207 15.5344 10.7254 15.6155C10.7265 15.6154 10.7275 15.6152 10.7286 15.6151L10.7356 15.6141C10.7941 16.6271 11.2145 17.5444 11.8712 18.2416C11.8695 18.2434 11.8679 18.2452 11.8662 18.2471C11.9923 18.3805 12.127 18.5057 12.2696 18.6221C12.2709 18.6203 12.2722 18.6186 12.2735 18.617C12.8805 19.1143 13.6293 19.4487 14.4512 19.5522C14.4512 19.5526 14.4512 19.5531 14.4513 19.5534Z" fill="white"/>
</g>
<defs>
<clipPath id="clip0_254_636">
<rect width="30" height="31" fill="white"/>
</clipPath>
</defs>
</svg>
