<svg width="35" height="18" viewBox="0 0 35 18" fill="none" xmlns="http://www.w3.org/2000/svg">
<path fill-rule="evenodd" clip-rule="evenodd" d="M19.4667 12.1624L18.2634 14.024L20.5986 17.656L23.0867 17.393L23.1989 16.7354L22.4545 16.3206L22.6279 15.0154L19.4667 12.1624Z" fill="white"/>
<path fill-rule="evenodd" clip-rule="evenodd" d="M3.17137 7.05326C2.24341 9.69383 1.19309 11.525 0 13.5485C0.0101973 13.8924 0.0101973 14.2364 0.0203947 14.5804L1.79473 17.1198L3.12038 16.7556L3.19176 15.4505L5.29241 13.599L3.70163 7.65017L3.17137 7.05326Z" fill="white"/>
<path fill-rule="evenodd" clip-rule="evenodd" d="M27.39 18L30.9693 17.7268L31.1222 17.2007C30.6532 17.0591 30.1841 17.0186 29.7252 16.877C28.787 15.238 27.8183 13.1842 26.7068 11.5351L30.2351 9.49149C30.9489 9.84559 32.0502 10.0176 32.7028 9.95688C32.7844 9.86582 32.866 9.76465 32.9476 9.66348C33.488 9.795 33.7939 9.78488 34.0387 9.75453C34.5179 9.6736 34.4772 9.54207 34.8239 9.24868C35.2216 8.92493 34.8443 8.7934 34.6811 8.63153C34.3752 8.26731 34.3854 8.16614 34.0795 7.81204C33.9571 7.68052 33.7939 7.62993 33.6818 7.58947L33.8959 6.99255C33.9775 6.70927 33.9163 6.4867 33.6818 6.21353C33.2841 5.7785 32.8558 4.3621 32.2337 3.90683C30.6939 2.78382 30.0617 2.86476 28.5423 2.54101C28.2364 2.48031 27.5226 2.18691 27.0331 1.91375C26.3805 1.53942 25.5647 1.12461 24.8305 1.13473C23.617 1.14485 23.2091 1.8834 22.0058 1.79234C21.3226 1.69117 20.9249 1.4686 20.4456 1.32696C16.0914 0.0319624 12.1348 -0.403075 9.05522 0.416414C6.15918 1.18532 5.79208 1.90363 3.35492 4.05858L2.79407 4.44304L2.52894 5.15123L2.85525 5.58627C3.15097 5.86955 3.4365 6.16295 3.72202 6.44623C4.79274 9.81524 5.7309 13.2854 6.53649 16.7556L7.78056 17.3829L10.0342 16.8062V16.3307L8.84108 16.1081L10.6664 13.4169C13.1749 12.6177 16.2749 11.5756 18.7733 10.7662C19.0486 11.0394 19.3953 11.4137 19.7318 11.7173C21.8121 13.5889 24.9631 16.0069 27.39 18Z" fill="white"/>
</svg>
