<svg width="21" height="40" viewBox="0 0 21 40" fill="none" xmlns="http://www.w3.org/2000/svg">
<path d="M10.5 30C8.78304 28.1859 2.30224 24.9364 0 24.8V28.4C2.55234 28.8643 8.40073 32.1277 10.5 34.4V30Z" fill="white"/>
<path d="M10.5 35.6C8.78304 33.7859 2.30224 29.7364 0 29.6V33.2C2.55234 33.6643 8.40073 37.7277 10.5 40V35.6Z" fill="white"/>
<path d="M10.5 30C12.217 28.1859 18.6978 24.9364 21 24.8V28.4C18.4477 28.8643 12.5993 32.1277 10.5 34.4V30Z" fill="white"/>
<path d="M10.5 35.6C12.217 33.7859 18.6978 29.7364 21 29.6V33.2C18.4477 33.6643 12.5993 37.7277 10.5 40V35.6Z" fill="white"/>
<path fill-rule="evenodd" clip-rule="evenodd" d="M15.5118 16.1031C17.275 13.8048 18.173 11.8477 18.173 9.88615C18.173 5.7775 14.7639 2.4 10.5 2.4C6.23601 2.4 2.82689 5.7775 2.82689 9.88615C2.82689 11.8264 3.7289 13.7269 5.5136 16.0154C6.63955 17.4592 7.91465 18.826 9.33416 20.3476C9.72499 20.7666 10.1268 21.1973 10.5394 21.6445C10.6554 21.5228 10.7707 21.4021 10.8851 21.2821C12.6467 19.4358 14.2206 17.7862 15.5118 16.1031ZM12.1633 23.4381C12.2951 23.2999 12.4265 23.1622 12.5574 23.025C16.8339 18.5428 20.5961 14.5997 20.5961 9.88615C20.5961 4.42618 16.0759 0 10.5 0C4.92401 0 0.403809 4.42618 0.403809 9.88615C0.403809 14.2996 3.76679 17.9108 7.66985 22.1021C8.06762 22.5292 8.471 22.9624 8.87701 23.403C9.41571 23.9877 9.95902 24.5856 10.5 25.2C11.0567 24.6014 11.6134 24.015 12.1633 23.4381Z" fill="white"/>
<path d="M14.1345 9.99999C14.1345 11.9882 12.5072 13.6 10.4998 13.6C8.49251 13.6 6.86523 11.9882 6.86523 9.99999C6.86523 8.01176 8.49251 6.39999 10.4998 6.39999C12.5072 6.39999 14.1345 8.01176 14.1345 9.99999Z" fill="white"/>
<path d="M14.9385 32.3265L14.9423 38.8L16.9616 37.6L18.9808 38.8L18.9808 30.189C17.4024 30.8714 16.3956 31.452 14.9385 32.3265Z" fill="white"/>
</svg>
