<svg width="32" height="32" viewBox="0 0 32 32" fill="none" xmlns="http://www.w3.org/2000/svg">
<g clip-path="url(#clip0_254_596)">
<path d="M15.5435 16.4567H9.05437C8.00542 16.4567 6.94566 17.098 6.94566 17.9567C6.94566 18.2666 7.19572 18.8534 8.06522 18.8534C9.1848 18.8534 10.1467 17.6958 11.1468 17.6958C12.0272 17.6958 12.1522 18.5055 12.1522 18.5055C11.625 18.4937 11.4348 18.5174 10.7826 18.8424C10.163 19.1413 9.34238 19.8859 8.79892 20.4728C8.25541 21.0598 7.37499 21.8152 6.32064 21.8152C5.26089 21.8152 4.22282 21.1358 4.22282 19.9076C4.22282 18.2826 5.52174 17.7609 5.52174 17.1685C5.52174 16.9946 5.4401 16.7663 5.09781 16.7663C4.57064 16.7663 3.54345 17.5326 2.54892 17.5326C1.18478 17.5326 0 16 0 16C0 16 1.18478 14.4674 2.54892 14.4674C3.54345 14.4674 4.57064 15.2337 5.09781 15.2337C5.44014 15.2337 5.52174 15.0053 5.52174 14.8261C5.52174 14.2446 4.22282 13.7174 4.22282 12.0924C4.22282 10.8642 5.26089 10.1849 6.32064 10.1849C7.37499 10.1849 8.25541 10.9402 8.79892 11.5272C9.34238 12.1141 10.163 12.8587 10.7826 13.1576C11.4348 13.4838 11.625 13.5054 12.1522 13.4944C12.1522 13.4944 12.0272 14.3042 11.1468 14.3042C10.1467 14.3042 9.1848 13.1466 8.06522 13.1466C7.19568 13.1466 6.94566 13.7336 6.94566 14.0433C6.94566 14.9075 8.00542 15.5433 9.05437 15.5433H15.5435V9.05424C15.5435 8.00534 14.9022 6.95102 14.0435 6.95102C13.7339 6.95102 13.1468 7.19552 13.1468 8.07057C13.1468 9.1847 14.3043 10.1521 14.3043 11.1521C14.3043 12.0271 13.4946 12.1521 13.4946 12.1521C13.5064 11.6249 13.4827 11.4401 13.1578 10.7825C12.8588 10.1684 12.1143 9.34773 11.5273 8.79879C10.9404 8.25533 10.1849 7.37494 10.1849 6.3206C10.1849 5.26082 10.8642 4.2228 12.0925 4.2228C13.7175 4.2228 14.2447 5.52713 14.8317 5.52713C15.0056 5.52713 15.2338 5.43999 15.2338 5.09779C15.2338 4.57062 14.4675 3.54345 14.4675 2.54889C14.4675 1.18481 16.0002 0 16.0002 0C16.0002 0 17.5327 1.18481 17.5327 2.54889C17.5327 3.54345 16.7664 4.57062 16.7664 5.09779C16.7664 5.44011 16.9948 5.52713 17.1686 5.52713C17.7556 5.52713 18.2827 4.2228 19.9078 4.2228C21.136 4.2228 21.8154 5.26082 21.8154 6.3206C21.8154 7.37494 21.0599 8.25533 20.473 8.79879C19.886 9.34773 19.1415 10.1684 18.8371 10.7825C18.5165 11.4401 18.4948 11.6249 18.5054 12.1521C18.5054 12.1521 17.6957 12.0271 17.6957 11.1521C17.6957 10.1521 18.8532 9.1847 18.8532 8.07057C18.8532 7.19556 18.2663 6.95102 17.9565 6.95102C17.0978 6.95102 16.4565 8.00534 16.4565 9.05424V15.5433H22.9456C23.9891 15.5433 25.0489 14.9075 25.0489 14.0433C25.0489 13.7334 24.8044 13.1466 23.9293 13.1466C22.8152 13.1466 21.8478 14.3042 20.8478 14.3042C19.9674 14.3042 19.8478 13.4944 19.8478 13.4944C20.375 13.5062 20.5652 13.4826 21.2174 13.1576C21.8315 12.8587 22.6522 12.1141 23.1956 11.5272C23.7445 10.9402 24.625 10.1849 25.6794 10.1849C26.7391 10.1849 27.7772 10.8642 27.7772 12.0924C27.7772 13.7174 26.4728 14.2446 26.4728 14.8261C26.4728 15.0055 26.5545 15.2337 26.9022 15.2337C27.4293 15.2337 28.4565 14.4674 29.4511 14.4674C30.8152 14.4674 32 16 32 16C32 16 30.8152 17.5326 29.4511 17.5326C28.4565 17.5326 27.4293 16.7663 26.9022 16.7663C26.5543 16.7663 26.4728 16.9947 26.4728 17.1685C26.4728 17.7609 27.7772 18.2826 27.7772 19.9076C27.7772 21.1358 26.7391 21.8152 25.6794 21.8152C24.625 21.8152 23.7445 21.0598 23.1956 20.4728C22.6522 19.8859 21.8315 19.1413 21.2174 18.8424C20.5652 18.5162 20.375 18.4945 19.8478 18.5055C19.8478 18.5055 19.9673 17.6958 20.8478 17.6958C21.8478 17.6958 22.8152 18.8534 23.9293 18.8534C24.8043 18.8534 25.0489 18.2664 25.0489 17.9567C25.0489 17.098 23.9891 16.4567 22.9456 16.4567H16.4565V22.9458C16.4565 23.9947 17.0978 25.049 17.9565 25.049C18.2665 25.049 18.8532 24.8045 18.8532 23.9348C18.8532 22.8153 17.6957 21.848 17.6957 20.848C17.6957 19.9729 18.5054 19.848 18.5054 19.848C18.4936 20.3751 18.5173 20.5654 18.8371 21.2175C19.1416 21.8316 19.886 22.6577 20.473 23.2012C21.0599 23.7447 21.8154 24.6251 21.8154 25.6849C21.8154 26.7392 21.136 27.7773 19.9078 27.7773C18.2827 27.7773 17.7556 26.4783 17.1686 26.4783C16.9947 26.4783 16.7664 26.5599 16.7664 26.9022C16.7664 27.4294 17.5327 28.4566 17.5327 29.4511C17.5327 30.8152 16.0002 32 16.0002 32C16.0002 32 14.4675 30.8152 14.4675 29.4511C14.4675 28.4566 15.2338 27.4294 15.2338 26.9022C15.2338 26.5599 15.0055 26.4783 14.8317 26.4783C14.2447 26.4783 13.7175 27.7773 12.0925 27.7773C10.8642 27.7773 10.1849 26.7392 10.1849 25.6849C10.1849 24.6251 10.9404 23.7447 11.5273 23.2012C12.1143 22.6577 12.8588 21.8316 13.1578 21.2175C13.4839 20.5654 13.5056 20.3751 13.4946 19.848C13.4946 19.848 14.3043 19.973 14.3043 20.848C14.3043 21.848 13.1468 22.8153 13.1468 23.9348C13.1468 24.8044 13.7337 25.049 14.0435 25.049C14.9022 25.049 15.5435 23.9947 15.5435 22.9458V16.4567Z" fill="white"/>
</g>
<defs>
<clipPath id="clip0_254_596">
<rect width="32" height="32" fill="white"/>
</clipPath>
</defs>
</svg>
