<svg width="70" height="17" viewBox="0 0 70 17" fill="none" xmlns="http://www.w3.org/2000/svg">
<g clip-path="url(#clip0_254_617)">
<path d="M9.93332 12.0356C12.1425 12.0356 13.9333 10.2394 13.9333 8.0237C13.9333 5.80802 12.1425 4.01185 9.93332 4.01185C8.31381 4.01185 6.9191 4.97715 6.28996 6.3654C5.42616 5.26886 4.393 4.18117 3.14491 3.77623C4.55845 1.50848 7.07024 0 9.93332 0C14.3516 0 17.9333 3.59233 17.9333 8.0237C17.9333 9.71972 17.4087 11.2928 16.5132 12.5887L17.4973 13.5757C18.2784 14.359 18.2784 15.6292 17.4973 16.4124C16.7163 17.1958 15.4499 17.1958 14.6689 16.4124L13.4784 15.2185C12.4099 15.7491 11.2064 16.0474 9.93332 16.0474C7.06238 16.0474 4.54467 14.5306 3.1333 12.2525C4.31637 11.8298 5.38385 10.7423 6.27657 9.65212C6.89914 11.0564 8.30221 12.0356 9.93332 12.0356Z" fill="white"/>
<path d="M19.3334 8.0237C19.3334 12.455 22.9152 16.0474 27.3334 16.0474C31.7517 16.0474 35.3335 12.455 35.3335 8.0237V2.00593C35.3335 0.898088 34.438 0 33.3334 0C32.2289 0 31.3334 0.898088 31.3334 2.00593V8.0237C31.3334 10.2394 29.5425 12.0356 27.3334 12.0356C25.1243 12.0356 23.3334 10.2394 23.3334 8.0237V2.00593C23.3334 0.898088 22.438 0 21.3335 0C20.2289 0 19.3334 0.898088 19.3334 2.00593V8.0237Z" fill="white"/>
<path fill-rule="evenodd" clip-rule="evenodd" d="M44.3333 16.0474C48.7517 16.0474 52.3334 12.455 52.3334 8.0237C52.3334 3.59233 48.7517 0 44.3333 0C39.9151 0 36.3334 3.59233 36.3334 8.0237C36.3334 12.455 39.9151 16.0474 44.3333 16.0474ZM44.3333 12.0356C46.5424 12.0356 48.3333 10.2394 48.3333 8.0237C48.3333 5.80802 46.5424 4.01185 44.3333 4.01185C42.1242 4.01185 40.3333 5.80802 40.3333 8.0237C40.3333 10.2394 42.1242 12.0356 44.3333 12.0356Z" fill="white"/>
<path d="M61.3333 0C65.7516 0 69.3334 3.59233 69.3334 8.0237V14.0415C69.3334 15.1493 68.4379 16.0474 67.3334 16.0474C66.2288 16.0474 65.3334 15.1493 65.3334 14.0415V8.0237C65.3334 5.80802 63.5425 4.01185 61.3333 4.01185C59.1242 4.01185 57.3333 5.80802 57.3333 8.0237V14.0415C57.3333 15.1493 56.438 16.0474 55.3334 16.0474C54.2288 16.0474 53.3334 15.1493 53.3334 14.0415V8.0237C53.3334 3.59233 56.9151 0 61.3333 0Z" fill="white"/>
<path d="M10.1333 10.2304C9.05578 10.2304 8.03333 8.82627 7.53333 8.0239C8.03333 7.22153 8.95782 5.81738 10.1333 5.81738C11.2109 5.81738 12.3333 6.48446 12.3333 8.0239C12.3333 9.56333 11.2109 10.2304 10.1333 10.2304Z" fill="white"/>
<path d="M5.13337 8.0239C4.63337 8.82627 3.61092 10.2304 2.53338 10.2304C1.45582 10.2304 0.333374 9.56333 0.333374 8.0239C0.333374 6.48446 1.45582 5.81738 2.53338 5.81738C3.70888 5.81738 4.63337 7.22153 5.13337 8.0239Z" fill="white"/>
</g>
<defs>
<clipPath id="clip0_254_617">
<rect width="69" height="17" fill="white" transform="translate(0.333374)"/>
</clipPath>
</defs>
</svg>
