<svg width="62" height="30" viewBox="0 0 62 30" fill="none" xmlns="http://www.w3.org/2000/svg">
<path d="M31.59 30.2235C13.8022 30.2235 0 23.3193 0 15.147C0 6.90421 13.8021 0 31.59 0C49.3041 0 63.1801 6.90424 63.1801 15.147C63.1801 23.3193 49.3041 30.2235 31.59 30.2235Z" transform="translate(0.35791 0.341797) scale(0.969996)" fill="url(#paint0_linear)"/>
<path fill-rule="evenodd" clip-rule="evenodd" d="M10.2565 24.3146C15.6136 26.9386 23.2371 28.6552 31.9589 28.6552C40.6421 28.6552 48.2666 26.939 53.6347 24.3139C59.1538 21.615 61.613 18.3421 61.613 15.5C61.613 12.6151 59.1438 9.32574 53.632 6.62176C48.2655 3.98902 40.6423 2.27273 31.9589 2.27273C23.2368 2.27273 15.6147 3.98946 10.2591 6.62109C4.76204 9.32222 2.30483 12.6105 2.30483 15.5C2.30483 18.3467 4.75212 21.6185 10.2565 24.3146ZM0 15.5C0 23.8628 13.9634 30.928 31.9589 30.928C49.8798 30.928 63.9178 23.8628 63.9178 15.5C63.9178 7.06517 49.8797 0 31.9589 0C13.9633 0 0 7.06515 0 15.5Z" transform="scale(0.969996)" fill="url(#paint1_linear)"/>
<path fill-rule="evenodd" clip-rule="evenodd" d="M20.4674 28.5256C20.5412 28.1733 20.246 27.7506 19.8769 27.6802C19.5079 27.6097 19.065 27.8211 18.9912 28.2438C18.9174 28.596 19.1388 29.0188 19.5817 29.0892C19.9507 29.1597 20.3936 28.8779 20.4674 28.5256ZM22.0173 1.40198C21.5745 1.47244 21.3531 1.82471 21.3531 2.24741C21.4268 2.59964 21.7959 2.88147 22.2387 2.81101C22.6078 2.74058 22.903 2.38831 22.8292 1.96561C22.7554 1.61334 22.3864 1.33154 22.0173 1.40198ZM22.6027 2.00796C22.5491 1.76236 22.2886 1.5817 22.0611 1.62511L22.0576 1.62578L22.054 1.62635C21.8905 1.65236 21.779 1.72685 21.7053 1.82651C21.6327 1.92476 21.5879 2.06013 21.5839 2.2228C21.6427 2.44441 21.8873 2.63493 22.1984 2.58721C22.4524 2.53689 22.6508 2.29527 22.6027 2.00796ZM19.8769 3.23371C19.5078 3.30418 19.065 3.09281 18.9912 2.67011C18.9174 2.31784 19.1388 1.96561 19.5816 1.82471C19.9507 1.75424 20.3935 2.03604 20.4673 2.38831C20.5412 2.74058 20.2459 3.16327 19.8769 3.23371ZM19.6382 2.04565C19.2931 2.16112 19.1725 2.41212 19.2169 2.62411L19.2177 2.62782L19.2183 2.63155C19.2652 2.89977 19.5595 3.06282 19.8331 3.01058C19.9461 2.989 20.0642 2.90828 20.1484 2.78779C20.2329 2.66682 20.2628 2.53538 20.2416 2.4343C20.2203 2.33268 20.1388 2.22079 20.0102 2.13895C19.8869 2.06046 19.7496 2.02854 19.6382 2.04565ZM21.4269 28.6665C21.4269 28.3142 21.7959 28.0324 22.2388 28.1029C22.6078 28.1733 22.9031 28.5256 22.8292 28.9483C22.7554 29.3006 22.3864 29.5824 22.0173 29.5119C21.5745 29.4415 21.3531 29.0892 21.4269 28.6665ZM22.6027 28.906C22.6508 28.6186 22.4525 28.377 22.1984 28.3267C21.8605 28.2747 21.6574 28.4898 21.6574 28.6665V28.6859L21.654 28.7051C21.6255 28.8687 21.6565 29.0013 21.72 29.095C21.7822 29.1867 21.8889 29.2613 22.054 29.2875L22.0576 29.2881L22.0611 29.2888C22.2886 29.3322 22.5491 29.1516 22.6027 28.906ZM24.6006 28.4551C25.0435 28.4551 25.3387 28.8074 25.2649 29.2301C25.1911 29.5824 24.8221 29.8642 24.453 29.8642C24.0102 29.7937 23.715 29.4415 23.7887 29.0188C23.8626 28.6665 24.2316 28.3847 24.6006 28.4551ZM24.0152 29.0611C23.9699 29.3324 24.1468 29.577 24.4709 29.6366C24.7302 29.6274 24.9873 29.4211 25.0384 29.1877C25.0858 28.9049 24.8983 28.6824 24.6006 28.6824H24.5785L24.5568 28.6783C24.3294 28.6349 24.0689 28.8155 24.0152 29.0611ZM35.9671 29.4415C35.8933 29.0188 36.2624 28.6665 36.6314 28.6665C37.0743 28.6665 37.3695 28.9483 37.4433 29.3006C37.4433 29.7233 37.148 30.0051 36.779 30.0755C36.3361 30.0755 35.9671 29.7937 35.9671 29.4415ZM36.7566 29.848C37.0152 29.7906 37.2024 29.6018 37.2124 29.3239C37.1522 29.0824 36.9494 28.8938 36.6314 28.8938C36.3884 28.8938 36.1475 29.135 36.1943 29.4029L36.1976 29.422V29.4415C36.1976 29.6168 36.4003 29.839 36.7566 29.848ZM38.4028 29.2301C38.329 28.8074 38.6242 28.4552 38.9933 28.4552C39.4361 28.3847 39.8051 28.6665 39.879 29.0188C39.879 29.4415 39.5837 29.7937 39.2147 29.8642C38.7718 29.8642 38.4028 29.5824 38.4028 29.2301ZM39.1917 29.6366C39.4293 29.5804 39.6374 29.3448 39.6481 29.043C39.5888 28.8206 39.3426 28.6298 39.03 28.6795L39.0117 28.6824H38.9933C38.7863 28.6824 38.577 28.8884 38.6299 29.1916L38.6333 29.2107V29.2301C38.6333 29.4053 38.8357 29.6274 39.1917 29.6366ZM41.4289 28.1029C41.798 28.0325 42.167 28.3142 42.2408 28.6665C42.3146 29.0892 42.0194 29.4415 41.6504 29.5119C41.2075 29.5824 40.8385 29.3006 40.7646 28.9483C40.7646 28.5256 40.9861 28.1734 41.4289 28.1029ZM40.9954 28.9237C41.0543 29.1453 41.2989 29.3358 41.61 29.2881C41.864 29.2378 42.0624 28.9962 42.0143 28.7089C41.9607 28.4632 41.7002 28.2826 41.4727 28.326L41.4692 28.3267L41.4656 28.3273C41.3021 28.3533 41.1907 28.4278 41.117 28.5274C41.0443 28.6257 40.9995 28.761 40.9954 28.9237ZM43.7908 27.6802C44.1598 27.6097 44.5289 27.8211 44.6765 28.2438C44.7503 28.5961 44.4551 29.0188 44.086 29.0892C43.6432 29.1597 43.2741 28.8779 43.2003 28.5256C43.1265 28.1733 43.348 27.7506 43.7908 27.6802ZM44.0456 28.8654C44.1576 28.8429 44.2742 28.7626 44.3575 28.6433C44.4384 28.5275 44.4693 28.4021 44.4532 28.3029C44.3354 27.9844 44.0733 27.8578 43.8346 27.9033L43.8311 27.904L43.8275 27.9046C43.5316 27.9516 43.3751 28.2364 43.4261 28.4796C43.4743 28.7102 43.7246 28.9146 44.0456 28.8654ZM43.7908 3.23383C43.3479 3.1634 43.1265 2.7407 43.2003 2.38843C43.2741 2.03616 43.6432 1.75436 44.086 1.82483C44.4551 1.96573 44.7503 2.31796 44.6765 2.67023C44.5289 3.09293 44.1598 3.30429 43.7908 3.23383ZM44.4532 2.61107C44.4688 2.51596 44.4401 2.40897 44.3611 2.30218C44.2824 2.19577 44.1622 2.10275 44.0256 2.04587C43.7142 2.00795 43.4733 2.20867 43.4261 2.43442C43.3751 2.67762 43.5316 2.9624 43.8275 3.00945L43.8311 3.01002L43.8346 3.0107C44.0733 3.05627 44.3354 2.9296 44.4532 2.61107ZM41.4289 2.81113C40.9861 2.7407 40.7646 2.38843 40.7646 1.96573C40.8385 1.61346 41.2075 1.33166 41.6504 1.4021C42.0194 1.47256 42.3146 1.82483 42.2408 2.24753C42.167 2.59976 41.798 2.8816 41.4289 2.81113ZM42.0143 2.20514C42.0624 1.91785 41.864 1.67625 41.61 1.6259C41.2989 1.5782 41.0543 1.7687 40.9954 1.99035C40.9995 2.15301 41.0443 2.28837 41.1169 2.38662C41.1906 2.48628 41.3021 2.56075 41.4656 2.58675L41.4692 2.58732L41.4727 2.588C41.7002 2.63142 41.9607 2.45077 42.0143 2.20514ZM36.6314 2.24753C36.2623 2.24753 35.8933 1.89526 35.9671 1.47257C35.9671 1.1203 36.3361 0.838497 36.779 0.838497C37.148 0.908964 37.4433 1.19076 37.4433 1.61346C37.3695 1.96573 37.0742 2.31796 36.6314 2.24753ZM37.2124 1.59025C37.2025 1.31235 37.0152 1.12341 36.7566 1.06605C36.4003 1.07501 36.1976 1.29727 36.1976 1.47257V1.49199L36.1943 1.51114C36.1475 1.77903 36.3884 2.02026 36.6314 2.02026H36.6499L36.6681 2.02316C36.8136 2.0463 36.9293 2.00229 37.0212 1.92037C37.1129 1.83873 37.1811 1.7177 37.2124 1.59025ZM27.0178 2.02013H27.0363C27.237 2.02013 27.4593 1.81837 27.4697 1.49596C27.411 1.26001 27.2162 1.07454 26.9109 1.06596C26.6453 1.12494 26.4549 1.32281 26.4549 1.61334C26.4549 1.8244 26.6956 2.07138 26.9996 2.02303L27.0178 2.02013ZM26.8887 0.838374C27.3315 0.838374 27.6268 1.12018 27.7006 1.47244C27.7006 1.89514 27.4053 2.24741 27.0363 2.24741C26.5934 2.31784 26.2244 1.96561 26.2244 1.61334C26.2244 1.19064 26.5196 0.908843 26.8887 0.838374ZM24.4751 1.34745H24.453C24.1553 1.34745 23.9678 1.56989 24.0152 1.85277C24.0688 2.09841 24.3294 2.27904 24.5568 2.23562L24.5785 2.23147H24.6006C24.8983 2.23147 25.0858 2.00904 25.0384 1.72618C24.9848 1.48054 24.7242 1.2999 24.4968 1.34331L24.4751 1.34745ZM25.2649 1.68381C25.1911 1.33154 24.8221 1.04974 24.453 1.12018C24.0102 1.12018 23.7149 1.47244 23.7887 1.89514C23.8625 2.24741 24.2316 2.52921 24.6006 2.45874C25.0435 2.45874 25.3387 2.10651 25.2649 1.68381ZM17.809 2.94172L17.806 2.92747C17.7651 2.73254 17.5515 2.56349 17.207 2.60913C16.9452 2.71915 16.8145 2.95796 16.8524 3.17409C16.9116 3.33419 17.0058 3.43946 17.1032 3.49414C17.2002 3.5486 17.3123 3.56057 17.4318 3.51493L17.4544 3.50631L17.4783 3.5025C17.6455 3.4759 17.7466 3.40127 17.7978 3.31823C17.8486 3.23576 17.8692 3.11421 17.8138 2.95547L17.809 2.94172ZM16.6293 3.23371C16.5555 2.88147 16.7769 2.52921 17.146 2.38831C17.5888 2.31784 17.9579 2.52921 18.0317 2.88147C18.1793 3.30417 17.9579 3.6564 17.515 3.72687C17.146 3.86777 16.7769 3.65641 16.6293 3.23371ZM10.3191 5.05534L10.2912 5.066C10.0593 5.15459 9.94671 5.43198 10.052 5.68314C10.14 5.89333 10.4255 6.01154 10.6984 5.91641C10.9566 5.7594 11.0485 5.47174 10.9612 5.23957C10.7836 4.9733 10.4916 4.93185 10.3434 5.03799L10.3191 5.05534ZM11.1675 5.1359C10.9461 4.78364 10.5032 4.64274 10.208 4.85407C9.83895 4.995 9.69134 5.4177 9.83895 5.76994C9.98656 6.1222 10.4294 6.2631 10.7985 6.1222C11.1675 5.91084 11.3151 5.48813 11.1675 5.1359ZM8.74741 6.29663L8.74021 6.27946C8.70319 6.19112 8.61409 6.12339 8.48503 6.09875C8.35398 6.07373 8.21798 6.10161 8.12912 6.16522L8.11963 6.17201L8.10948 6.17783C7.96981 6.25783 7.88016 6.37343 7.84381 6.48331C7.80824 6.59083 7.82399 6.6858 7.88069 6.75798L7.88805 6.76735L7.89439 6.77743C8.05881 7.03899 8.36857 7.12418 8.61606 6.98244C8.85743 6.84419 8.92007 6.57127 8.75733 6.31242L8.74741 6.29663ZM8.73183 7.17896C8.36277 7.39033 7.91993 7.24943 7.69849 6.89717C7.47708 6.61537 7.6247 6.19267 7.99372 5.9813C8.28898 5.76993 8.80561 5.8404 8.95323 6.19267C9.17467 6.5449 9.10085 6.9676 8.73183 7.17896ZM6.70575 7.60446L6.69068 7.58049C6.55093 7.35815 6.26775 7.28868 5.99362 7.43249C5.77745 7.65399 5.76218 7.93332 5.88582 8.0939C6.12008 8.37098 6.42569 8.38807 6.60086 8.2651C6.7465 8.15289 6.81733 8.02607 6.83414 7.91912C6.85016 7.81713 6.82106 7.71452 6.72629 7.62408L6.70575 7.60446ZM6.73897 8.4471C6.44375 8.65843 6.0009 8.588 5.70567 8.23573C5.48423 7.95393 5.55806 7.53123 5.85329 7.24944C6.22234 7.03807 6.66519 7.1085 6.88659 7.46077C7.18185 7.74257 7.10803 8.16527 6.73897 8.4471ZM20.2416 28.4796C20.2628 28.3785 20.2329 28.2471 20.1484 28.1261C20.0642 28.0056 19.9462 27.9249 19.8331 27.9033C19.5595 27.8511 19.2652 28.0141 19.2184 28.2824L19.2177 28.2861L19.2169 28.2898C19.166 28.533 19.3225 28.8178 19.6184 28.8648L19.6219 28.8654L19.6255 28.8661C19.739 28.8878 19.8822 28.8565 20.0103 28.775C20.1389 28.6931 20.2204 28.5812 20.2416 28.4796ZM17.8104 27.9655L17.8187 27.9456C17.9073 27.7341 17.78 27.4594 17.4783 27.4114L17.4544 27.4076L17.4318 27.399C17.3123 27.3533 17.2002 27.3653 17.1032 27.4198C17.0058 27.4744 16.9116 27.5797 16.8524 27.7398C16.8145 27.9559 16.9452 28.1948 17.2071 28.3048C17.5515 28.3504 17.7651 28.1814 17.806 27.9865L17.8104 27.9655ZM16.6294 27.6802C16.777 27.2575 17.146 27.0461 17.515 27.187C17.9579 27.2575 18.1793 27.6802 18.0317 28.0324C17.9579 28.3847 17.5888 28.596 17.146 28.5256C16.777 28.3847 16.5555 28.0324 16.6294 27.6802ZM14.5626 27.0427L14.5543 27.0625C14.4591 27.2895 14.6101 27.5564 14.8279 27.598L14.8481 27.6018L14.8673 27.6092C15.1033 27.6993 15.4102 27.5669 15.5221 27.3307C15.5672 27.0725 15.4552 26.8013 15.1697 26.7033C15.0444 26.6829 14.9013 26.7078 14.7826 26.7708C14.6595 26.836 14.5866 26.9281 14.567 27.0217L14.5626 27.0427ZM15.227 26.4825C15.6698 26.6234 15.8175 27.0461 15.7436 27.3984C15.596 27.7506 15.1532 27.962 14.7841 27.8211C14.4151 27.7506 14.1937 27.3279 14.3413 26.9757C14.4151 26.6234 14.8579 26.4121 15.227 26.4825ZM12.5731 26.8319L12.5793 26.8342C12.8049 26.9203 13.0573 26.8026 13.1687 26.5367C13.274 26.2854 13.1614 26.0081 12.9295 25.9195C12.6872 25.827 12.3702 25.969 12.2662 26.2171C12.166 26.4564 12.2619 26.7328 12.5668 26.8299L12.5731 26.8319ZM9.83898 25.1439C9.69136 25.4962 9.83898 25.9189 10.208 26.0598C10.5032 26.2712 10.9461 26.1303 11.1675 25.778C11.3151 25.4258 11.1675 25.003 10.7985 24.7917C10.4294 24.6508 9.98659 24.7917 9.83898 25.1439ZM10.6984 24.9975C10.4255 24.9024 10.1401 25.0206 10.052 25.2307C9.94672 25.482 10.0593 25.7593 10.2912 25.8479L10.3192 25.8585L10.3434 25.8759C10.4917 25.9821 10.7836 25.9406 10.9612 25.6743C11.0486 25.4422 10.9566 25.1545 10.6984 24.9975ZM6.70577 23.3095L6.72632 23.2898C6.82108 23.1994 6.85019 23.0968 6.83416 22.9948C6.81735 22.8878 6.74653 22.761 6.60088 22.6488C6.42571 22.5258 6.12009 22.5429 5.88583 22.82C5.76221 22.9806 5.77748 23.2599 5.99364 23.4814C6.26776 23.6252 6.55096 23.5557 6.69071 23.3334L6.70577 23.3095ZM5.85332 23.6645C5.55809 23.3827 5.48426 22.96 5.7057 22.6782C6.00093 22.3259 6.44377 22.2555 6.739 22.4668C7.10806 22.7486 7.18188 23.1714 6.88662 23.4532C6.66521 23.8054 6.22237 23.8759 5.85332 23.6645ZM1.95124 18.1614L1.97147 18.1575C2.18935 18.1159 2.34027 17.8491 2.24513 17.6221L2.24248 17.6157L2.24022 17.6093C2.18456 17.4499 2.09466 17.3589 1.98869 17.3083C1.88213 17.2575 1.73867 17.238 1.56049 17.2627C1.30527 17.3729 1.18119 17.6622 1.26877 17.8712C1.37276 18.1193 1.68982 18.2612 1.93203 18.1687L1.95124 18.1614ZM1.49864 17.0421C1.94148 16.9717 2.31053 17.1126 2.45815 17.5353C2.60576 17.8875 2.38432 18.3102 2.01527 18.3807C1.64625 18.5216 1.20341 18.3102 1.05576 17.958C0.908143 17.6057 1.12958 17.183 1.49864 17.0421ZM1.29566 15.0149H1.2772C1.04438 15.0149 0.843395 15.186 0.843395 15.4922C0.843395 15.5917 0.898066 15.7122 1.00387 15.8132C1.10391 15.9087 1.22588 15.9637 1.33399 15.969C1.50663 15.9382 1.6355 15.8702 1.7202 15.7836C1.80574 15.6961 1.85861 15.5775 1.85861 15.4217C1.85861 15.2107 1.61788 14.9637 1.3139 15.012L1.29566 15.0149ZM1.35102 16.1967C1.79387 16.1262 2.08909 15.8444 2.08909 15.4217C2.08909 15.0695 1.72004 14.7172 1.2772 14.7877C0.908142 14.7877 0.612912 15.0695 0.612912 15.4922C0.612912 15.8444 0.981965 16.1967 1.35102 16.1967ZM62.2946 15.0149L62.2729 15.0108C62.1761 14.9923 62.0624 15.027 61.9638 15.1148C61.8643 15.2035 61.8091 15.3215 61.8091 15.4217C61.8091 15.5775 61.862 15.6961 61.9475 15.7836C62.0322 15.8702 62.1611 15.9382 62.3337 15.969C62.4418 15.9637 62.5638 15.9087 62.6638 15.8132C62.7696 15.7122 62.8243 15.5917 62.8243 15.4922C62.8243 15.3347 62.7705 15.2201 62.6915 15.1447C62.6118 15.0686 62.488 15.0149 62.3167 15.0149H62.2946ZM62.3167 16.1967C61.8738 16.1262 61.5786 15.8444 61.5786 15.4217C61.5786 15.0695 61.9477 14.7172 62.3167 14.7877C62.7596 14.7877 63.0548 15.0695 63.0548 15.4922C63.0548 15.8444 62.6857 16.1967 62.3167 16.1967ZM61.4323 17.5987L61.4226 17.6221C61.3274 17.8491 61.4784 18.1159 61.6962 18.1575L61.7165 18.1614L61.7357 18.1687C61.9716 18.2588 62.2785 18.1265 62.3904 17.8903C62.4355 17.6319 62.3234 17.3606 62.0376 17.2627C61.8982 17.2389 61.753 17.2554 61.6421 17.3083C61.5346 17.3596 61.4595 17.4433 61.4367 17.5738L61.4323 17.5987ZM62.0953 17.0421C62.5381 17.183 62.6857 17.6057 62.6119 17.958C62.4643 18.3102 62.0215 18.5216 61.6524 18.3807C61.2834 18.3102 61.0619 17.8875 61.2095 17.5353C61.2834 17.1126 61.7262 16.9717 62.0953 17.0421ZM60.3562 19.509L60.3539 19.5118C60.2513 19.6342 60.2314 19.7576 60.2544 19.867C60.2779 19.9793 60.3494 20.0873 60.45 20.1626C60.729 20.3166 61.0274 20.2502 61.1678 20.082C61.3237 19.824 61.2581 19.5493 61.0831 19.4166C60.7994 19.2601 60.4956 19.3316 60.3584 19.5062L60.3562 19.509ZM61.2095 19.2261C61.5048 19.4374 61.5786 19.8602 61.3572 20.2124C61.1358 20.4942 60.6929 20.5647 60.3239 20.3533C60.0286 20.142 59.881 19.7193 60.1762 19.367C60.3977 19.0852 60.8405 19.0147 61.2095 19.2261ZM57.7074 22.8219L57.6923 22.7979C57.5405 22.5564 57.2513 22.5192 57.0669 22.6488C56.7754 22.8732 56.7663 23.154 56.8874 23.3113C57.1217 23.5884 57.4273 23.6055 57.6024 23.4825C57.7481 23.3703 57.8189 23.2435 57.8357 23.1365C57.8518 23.0345 57.8227 22.9319 57.7279 22.8415L57.7074 22.8219ZM57.7406 23.6645C57.4453 23.8759 57.0025 23.8054 56.7073 23.4532C56.4858 23.1714 56.5597 22.7486 56.9287 22.4668C57.2239 22.2555 57.6668 22.3259 57.8882 22.6782C58.1834 22.96 58.1096 23.3827 57.7406 23.6645ZM55.6942 24.1318L55.6824 24.1035C55.641 24.0048 55.5397 23.9208 55.4067 23.8827C55.2725 23.8443 55.1476 23.8642 55.0713 23.9189L55.0618 23.9257L55.0516 23.9315C54.7731 24.091 54.6961 24.3781 54.8365 24.6015C54.9805 24.8305 55.2766 24.8974 55.5582 24.7361L55.5739 24.7271L55.5907 24.7207C55.6887 24.6833 55.7561 24.5973 55.7804 24.4815C55.8053 24.3624 55.7778 24.2382 55.7132 24.156L55.6942 24.1318ZM55.8954 24.0168C55.7477 23.6645 55.2311 23.5236 54.9358 23.735C54.5668 23.9463 54.4192 24.369 54.6406 24.7213C54.8621 25.0735 55.3049 25.1439 55.674 24.9326C56.043 24.7917 56.1168 24.2986 55.8954 24.0168ZM52.706 25.6741L52.7132 25.6912C52.8023 25.9038 53.0834 26.0125 53.344 25.8633L53.3596 25.8543L53.3765 25.8479C53.6032 25.7613 53.7158 25.4944 53.6225 25.2478C53.4593 25.0045 53.1512 24.9089 52.8954 24.9976C52.6298 25.1587 52.5584 25.4392 52.6961 25.6583L52.706 25.6741ZM52.7954 24.7917C53.1645 24.6508 53.6073 24.7917 53.8287 25.1439C53.9763 25.4962 53.8287 25.9189 53.4597 26.0598C53.0907 26.2712 52.6478 26.1303 52.5002 25.778C52.2788 25.4258 52.4264 25.003 52.7954 24.7917ZM46.1364 27.4076L46.1227 27.4102C46.0173 27.4303 45.9207 27.5032 45.8544 27.6172C45.7913 27.7255 45.7664 27.8538 45.7842 27.966C45.8966 28.2097 46.1492 28.3445 46.3909 28.3048C46.729 28.1919 46.8518 27.9489 46.8153 27.7398C46.7564 27.5805 46.6633 27.4771 46.5602 27.4224C46.456 27.3672 46.319 27.3495 46.1497 27.4033L46.1364 27.4076ZM47.0384 27.6802C46.8907 27.2575 46.5217 27.0461 46.0789 27.187C45.7098 27.2575 45.4884 27.6802 45.5622 28.0324C45.7098 28.3847 46.0789 28.5961 46.4479 28.5256C46.8907 28.3847 47.1122 28.0324 47.0384 27.6802ZM38.6333 1.70335L38.6299 1.72249C38.577 2.0256 38.7863 2.23159 38.9933 2.23159H39.0117L39.03 2.23449C39.3426 2.28424 39.5888 2.09336 39.6481 1.87099C39.6374 1.54901 39.4153 1.34757 39.2147 1.34757H39.1962L39.178 1.34467C38.8378 1.29057 38.6333 1.5066 38.6333 1.68393V1.70335ZM39.879 1.89526C39.8051 2.24753 39.4361 2.52933 38.9933 2.45886C38.6242 2.45886 38.329 2.10663 38.4028 1.68393C38.4028 1.33167 38.7718 1.04986 39.2147 1.12029C39.5837 1.12029 39.879 1.47256 39.879 1.89526ZM46.1364 3.50648L46.1496 3.5107C46.3189 3.56457 46.456 3.54684 46.5601 3.4916C46.6633 3.43692 46.7564 3.33349 46.8152 3.17424C46.8518 2.96515 46.729 2.72217 46.3909 2.60922C46.15 2.56964 45.8984 2.70334 45.7853 2.94554C45.7413 3.25727 45.9065 3.46259 46.1227 3.50387L46.1364 3.50648ZM45.5622 2.8816C45.7098 2.52933 46.0789 2.31796 46.4479 2.38843C46.8907 2.52933 47.1122 2.88159 47.0383 3.23383C46.8907 3.65652 46.5217 3.86789 46.0789 3.72699C45.7098 3.65653 45.4884 3.3043 45.5622 2.8816ZM49.1108 3.85789L49.1134 3.85157C49.2086 3.62452 49.0576 3.35766 48.8398 3.31606L48.8261 3.31344L48.8128 3.30922C48.4912 3.20689 48.2416 3.35303 48.1371 3.60242C48.0495 3.81145 48.1736 4.10066 48.4288 4.21087C48.6069 4.23559 48.7504 4.21614 48.857 4.16529C48.9629 4.11472 49.0528 4.02374 49.1085 3.86436L49.1108 3.85789ZM48.3669 4.43149C47.9979 4.29059 47.7765 3.86789 47.9241 3.51563C48.0717 3.16339 48.4407 2.95203 48.8836 3.09293C49.2526 3.16339 49.474 3.58609 49.3264 3.93836C49.1788 4.36106 48.8098 4.50196 48.3669 4.43149ZM52.706 5.23999L52.6961 5.25577C52.5584 5.47485 52.6298 5.75527 52.8954 5.91647C53.1511 6.00512 53.4593 5.9095 53.6225 5.66619C53.7158 5.41966 53.6032 5.15271 53.3764 5.06612L53.3596 5.05968L53.344 5.05073C53.0834 4.90154 52.8023 5.01022 52.7132 5.22282L52.706 5.23999ZM53.8287 5.77006C53.6073 6.12232 53.1645 6.26322 52.7954 6.12232C52.4264 5.91096 52.2787 5.48826 52.5002 5.13603C52.6478 4.78376 53.0906 4.64286 53.4597 4.85419C53.8287 4.99513 53.9763 5.41782 53.8287 5.77006ZM55.0618 6.98838L55.0713 6.99518C55.1476 7.04982 55.2724 7.06973 55.4067 7.0313C55.5397 6.99321 55.641 6.90922 55.6823 6.8105L55.6942 6.78225L55.7132 6.75809C55.8431 6.59271 55.8154 6.32527 55.5582 6.17795C55.2766 6.01667 54.9805 6.0835 54.8365 6.31252C54.6961 6.53589 54.7731 6.82304 55.0516 6.98257L55.0618 6.98838ZM57.7074 8.09216L57.7279 8.07256C57.8227 7.98212 57.8518 7.87951 57.8357 7.77752C57.8189 7.67057 57.7481 7.54376 57.6025 7.43156C57.4273 7.30857 57.1217 7.32564 56.8874 7.60273C56.7663 7.76007 56.7754 8.04081 57.0668 8.26523C57.2512 8.39485 57.5405 8.35762 57.6923 8.11612L57.7074 8.09216ZM56.9287 8.44723C56.5596 8.16539 56.4858 7.74269 56.7073 7.46089C57.0025 7.10863 57.4453 7.03819 57.7406 7.24956C58.1096 7.53136 58.1834 7.95406 57.8882 8.23586C57.6668 8.58812 57.2239 8.65856 56.9287 8.44723ZM60.3562 11.405L60.3584 11.4078C60.4956 11.5824 60.7994 11.6539 61.0831 11.4974C61.2581 11.3647 61.3237 11.0901 61.1678 10.832C61.0274 10.6638 60.729 10.5974 60.45 10.7514C60.3494 10.8267 60.2779 10.9347 60.2543 11.047C60.2314 11.1564 60.2513 11.2798 60.3539 11.4023L60.3562 11.405ZM60.3239 10.5607C60.0286 10.7721 59.881 11.1948 60.1762 11.5471C60.3977 11.8289 60.8405 11.8993 61.2095 11.688C61.5048 11.4766 61.5786 11.0539 61.3572 10.7017C61.1358 10.4198 60.6929 10.3494 60.3239 10.5607ZM9.37943 4.64165C15.134 1.88132 22.9508 0 31.8338 0C40.7169 0 48.593 2.09387 54.3476 4.85419C60.0891 7.60825 63.6668 11.0612 63.6668 15.4922C63.6668 19.8887 60.1613 23.4722 54.4205 26.2171C48.666 28.9685 40.7169 30.9139 31.8338 30.9139C22.9507 30.9139 15.1933 29.061 9.43883 26.3096C3.69804 23.5648 -0.0656662 19.8501 0.000868031 15.4922C0.0674023 11.1343 3.63791 7.39571 9.37943 4.64165ZM4.68658 11.0052C3.3801 12.4553 2.70112 14.1577 2.70112 15.4922C2.70112 16.8083 3.48105 18.2551 4.78773 19.6957C6.09265 21.1344 8.02735 22.5503 10.5344 23.799C15.5475 26.2958 22.8218 28.1099 31.8338 28.1099C40.8458 28.1099 48.2058 26.4283 53.2189 23.9315C55.726 22.6828 57.8289 21.3057 59.1338 19.867C60.4405 18.4264 60.9665 16.8083 60.9665 15.4922C60.9665 14.1577 60.3469 12.5139 59.0405 11.0638C57.7355 9.6154 55.6968 8.24814 53.1899 6.99518C48.1769 4.48969 40.8458 2.80398 31.8338 2.80398C22.8219 2.80398 15.4617 4.45798 10.4487 6.96347C7.94178 8.21643 5.9915 9.55682 4.68658 11.0052ZM29.9058 1.40198C29.9058 1.12596 29.6625 0.924748 29.3981 0.924748C29.1039 0.924748 28.8905 1.15311 28.8905 1.47244C28.8905 1.56668 28.94 1.66572 29.0389 1.74746C29.1381 1.82952 29.2708 1.87924 29.3981 1.87924C29.7059 1.87924 29.9058 1.63661 29.9058 1.40198ZM15.522 3.57797C15.4602 3.36467 15.1538 3.20075 14.8601 3.29233C14.7051 3.34064 14.6163 3.41405 14.5699 3.49697C14.5231 3.58069 14.4999 3.70895 14.5464 3.90418C14.5853 4.06707 14.6745 4.15346 14.7803 4.19821C14.895 4.24677 15.0479 4.25282 15.205 4.20999C15.4478 4.14376 15.5989 3.84331 15.522 3.57797ZM12.9137 4.0901C12.8191 4.03909 12.6983 4.02006 12.537 4.08653C12.3602 4.15946 12.275 4.2583 12.2385 4.35101C12.2009 4.44629 12.2026 4.56607 12.2585 4.69954C12.3641 4.95149 12.657 5.09842 12.9295 4.9944C13.1925 4.89397 13.2797 4.61274 13.1728 4.38646C13.1094 4.25215 13.0171 4.14592 12.9137 4.0901ZM4.8073 9.0331C4.60143 8.8366 4.30043 8.8366 4.09457 9.0331C3.89291 9.22558 3.89291 9.50031 4.09457 9.6928C4.30043 9.8893 4.60143 9.8893 4.8073 9.6928C5.00895 9.50031 5.00895 9.22558 4.8073 9.0331ZM2.49987 10.8319C2.34402 11.0899 2.40953 11.3645 2.58456 11.4973C2.86344 11.6511 3.16167 11.5847 3.30206 11.4166C3.45789 11.1585 3.39237 10.8839 3.21737 10.7511C2.93842 10.5973 2.64021 10.6638 2.49987 10.8319ZM3.34381 10.5606C2.97475 10.3493 2.53191 10.4197 2.31051 10.7015C2.08907 11.0538 2.16286 11.4765 2.45812 11.6878C2.82714 11.8992 3.26998 11.8287 3.49142 11.5469C3.71286 11.1947 3.63904 10.772 3.34381 10.5606ZM1.93202 12.7452C1.6898 12.6527 1.3727 12.7947 1.26874 13.0428C1.17184 13.274 1.30298 13.5742 1.5667 13.6547C1.85725 13.7433 2.18232 13.586 2.27075 13.3328C2.35246 13.0988 2.22089 12.8555 1.93202 12.7452ZM32.181 29.1909C32.0757 29.0903 31.946 29.0347 31.8338 29.0347C31.5261 29.0347 31.3263 29.2773 31.3263 29.5119C31.3263 29.6694 31.38 29.784 31.4591 29.8594C31.5388 29.9355 31.6626 29.9892 31.8338 29.9892C32.0982 29.9892 32.3414 29.788 32.3414 29.5119C32.3414 29.4124 32.2868 29.2919 32.181 29.1909ZM29.9058 29.5119C29.9058 29.2773 29.7059 29.0347 29.3982 29.0347C29.2708 29.0347 29.1381 29.0844 29.0389 29.1665C28.9401 29.2482 28.8906 29.3472 28.8906 29.4415C28.8906 29.7608 29.104 29.9892 29.3982 29.9892C29.6625 29.9892 29.9058 29.788 29.9058 29.5119ZM27.4697 29.418C27.4594 29.0955 27.2371 28.8938 27.0363 28.8938C26.6661 28.8938 26.4549 29.1216 26.4549 29.3006C26.4549 29.5911 26.6453 29.789 26.9109 29.848C27.2162 29.8394 27.4111 29.6539 27.4697 29.418ZM27.7006 29.4415C27.7006 29.0188 27.4054 28.6665 27.0363 28.6665C26.5935 28.6665 26.2244 28.9483 26.2244 29.3006C26.2244 29.7233 26.5197 30.0051 26.8887 30.0755C27.3316 30.0755 27.6268 29.7937 27.7006 29.4415ZM8.86001 24.2036C8.84113 24.1193 8.77996 24.0253 8.61609 23.9315C8.45513 23.8393 8.32285 23.8261 8.21928 23.8528C8.11457 23.8798 8.00369 23.9568 7.9051 24.1122C7.81141 24.2599 7.80385 24.3754 7.829 24.4627C7.85555 24.5549 7.92931 24.6521 8.06502 24.7366C8.19768 24.8192 8.344 24.8532 8.46613 24.8359C8.57891 24.82 8.68694 24.7591 8.7643 24.6128C8.86296 24.4261 8.88046 24.2949 8.86001 24.2036ZM4.80732 21.8808C5.00898 21.6883 5.00898 21.4136 4.80732 21.2211C4.60146 21.0246 4.30046 21.0246 4.0946 21.2211C3.89294 21.4136 3.89294 21.6883 4.0946 21.8808C4.30046 22.0773 4.60146 22.0773 4.80732 21.8808ZM3.30209 19.4974C3.45793 19.7554 3.39239 20.03 3.2174 20.1628C2.93847 20.3166 2.64024 20.2501 2.49989 20.082C2.34404 19.824 2.40957 19.5493 2.58459 19.4166C2.86346 19.2628 3.1617 19.3292 3.30209 19.4974ZM2.45815 19.2261C2.82716 19.0147 3.27001 19.0852 3.49145 19.367C3.71289 19.7193 3.63906 20.142 3.34383 20.3533C2.97478 20.5647 2.53194 20.4942 2.31053 20.2124C2.08909 19.8602 2.16288 19.4374 2.45815 19.2261ZM58.6263 21.0578C58.4048 21.3396 58.4048 21.7623 58.6263 22.0441C58.9215 22.3259 59.4382 22.3259 59.7334 22.0441C59.9548 21.7623 59.9548 21.3396 59.7334 21.0578C59.4382 20.776 58.9215 20.776 58.6263 21.0578ZM59.5611 21.2101C59.3571 21.0283 59.0026 21.0283 58.7985 21.2101C58.6547 21.4057 58.6547 21.6962 58.7985 21.8918C59.0026 22.0736 59.3571 22.0737 59.5611 21.8918C59.7049 21.6962 59.7049 21.4057 59.5611 21.2101ZM51.4015 26.2171C51.2827 25.9336 51.0155 25.8136 50.7382 25.9195C50.5797 25.98 50.4766 26.075 50.4256 26.1757C50.3763 26.2729 50.3655 26.3943 50.4251 26.5366C50.4888 26.6885 50.5889 26.7861 50.6981 26.8347C50.8062 26.883 50.94 26.8909 51.0884 26.8342C51.2441 26.7748 51.347 26.6785 51.3985 26.5753C51.4487 26.4749 51.4583 26.3527 51.4015 26.2171ZM49.1223 27.0684C48.9881 26.7861 48.7351 26.6294 48.4201 26.6979C48.2838 26.7275 48.1881 26.8181 48.1354 26.9411C48.0806 27.069 48.0805 27.2153 48.1258 27.3235C48.2226 27.5543 48.5299 27.7211 48.8286 27.6261C48.9845 27.5764 49.0814 27.4862 49.1278 27.3922C49.1733 27.2999 49.1789 27.1875 49.1223 27.0684ZM34.6288 29.1665C34.5296 29.0844 34.3969 29.0347 34.2695 29.0347C33.9618 29.0347 33.7619 29.2773 33.7619 29.5119C33.7619 29.788 34.0052 29.9892 34.2695 29.9892C34.5637 29.9892 34.7771 29.7608 34.7771 29.4415C34.7771 29.3472 34.7276 29.2482 34.6288 29.1665ZM31.3263 1.4021C31.3263 1.63674 31.5262 1.87936 31.8338 1.87936C31.946 1.87936 32.0756 1.82371 32.181 1.72317C32.2868 1.62218 32.3414 1.50167 32.3414 1.4021C32.3414 1.12607 32.0982 0.924871 31.8338 0.924871C31.6626 0.924871 31.5387 0.978559 31.459 1.05463C31.38 1.13006 31.3263 1.24466 31.3263 1.4021ZM33.7619 1.4021C33.7619 1.63673 33.9618 1.87936 34.2695 1.87936C34.3969 1.87936 34.5296 1.82965 34.6288 1.74758C34.7276 1.66584 34.7771 1.56681 34.7771 1.47257C34.7771 1.15324 34.5637 0.924871 34.2695 0.924871C34.0052 0.924871 33.7619 1.12608 33.7619 1.4021ZM50.4251 4.37738C50.3281 4.60902 50.471 4.8925 50.7382 4.99452C50.9781 5.08614 51.2882 4.96714 51.4015 4.69697C51.5034 4.45379 51.3853 4.19319 51.0884 4.07983C50.8211 3.97778 50.5392 4.10521 50.4251 4.37738ZM55.674 5.98142C55.3049 5.77006 54.8621 5.84052 54.6406 6.19279C54.4192 6.54502 54.5668 6.96772 54.9358 7.17909C55.2311 7.39046 55.7477 7.24956 55.8954 6.89729C56.1168 6.61549 56.043 6.19279 55.674 5.98142ZM58.7985 9.70394C58.6547 9.50833 58.6547 9.21781 58.7985 9.0222C59.0026 8.8404 59.3571 8.84039 59.5611 9.0222C59.7049 9.21781 59.7049 9.50833 59.5611 9.70394C59.3571 9.88575 59.0026 9.88574 58.7985 9.70394ZM59.7334 9.85622C59.4382 10.138 58.9215 10.138 58.6263 9.85622C58.4048 9.57442 58.4048 9.15172 58.6263 8.86992C58.9215 8.58812 59.4382 8.58812 59.7334 8.86992C59.9548 9.15172 59.9548 9.57442 59.7334 9.85622ZM61.4133 12.9956C61.3594 13.0885 61.3444 13.1981 61.394 13.325C61.454 13.4784 61.5393 13.5745 61.6346 13.6256C61.7281 13.6758 61.858 13.6972 62.0381 13.6517C62.3499 13.573 62.4796 13.2809 62.3935 13.0286C62.3112 12.7877 62.0093 12.6408 61.7356 12.7453C61.5795 12.8049 61.4703 12.8975 61.4133 12.9956ZM31.8338 0.227273C14.12 0.227273 0.231351 6.89718 0.231351 15.4922C0.231351 24.0167 14.1198 30.6866 31.8338 30.6866C49.5477 30.6866 63.4363 24.0167 63.4363 15.4922C63.4363 6.89716 49.5478 0.227273 31.8338 0.227273ZM2.47063 15.4922C2.47063 9.8561 13.7508 2.5767 31.8338 2.5767C49.917 2.5767 61.197 9.8561 61.197 15.4922C61.197 21.0578 49.9169 28.3372 31.8338 28.3372C13.7507 28.3372 2.47063 21.0578 2.47063 15.4922ZM29.3981 0.697476C29.7672 0.697476 30.1362 0.979276 30.1362 1.40198C30.1362 1.75424 29.841 2.10651 29.3981 2.10651C29.0291 2.10651 28.6601 1.82471 28.6601 1.47244C28.6601 1.04974 28.9553 0.697476 29.3981 0.697476ZM14.7906 3.07563C15.1814 2.95378 15.6389 3.15416 15.7436 3.5155C15.8483 3.87685 15.657 4.32251 15.2664 4.42904C14.8758 4.53557 14.4331 4.42153 14.3221 3.95625C14.211 3.49096 14.3998 3.19747 14.7906 3.07563ZM12.4481 3.87685C12.8957 3.69231 13.2258 3.96049 13.3817 4.29047C13.5377 4.62045 13.4157 5.05249 13.0127 5.20634C12.6097 5.36019 12.1931 5.1386 12.0455 4.78634C11.8979 4.43407 12.0006 4.06138 12.4481 3.87685ZM3.93426 8.8698C4.22949 8.588 4.67237 8.588 4.9676 8.8698C5.26283 9.1516 5.26283 9.5743 4.9676 9.8561C4.67237 10.1379 4.22949 10.1379 3.93426 9.8561C3.63904 9.5743 3.63904 9.1516 3.93426 8.8698ZM1.05573 12.956C1.20334 12.6037 1.64622 12.3923 2.01524 12.5332C2.38426 12.6741 2.62203 13.0249 2.48867 13.4068C2.35531 13.7887 1.89464 13.9926 1.49861 13.8718C1.10258 13.751 0.908115 13.3082 1.05573 12.956ZM31.8338 28.8074C32.2029 28.8074 32.5719 29.1597 32.5719 29.5119C32.5719 29.9346 32.2029 30.2164 31.8338 30.2164C31.391 30.2164 31.0958 29.9346 31.0958 29.5119C31.0958 29.1597 31.391 28.8074 31.8338 28.8074ZM29.3982 28.8074C29.841 28.8074 30.1363 29.1597 30.1363 29.5119C30.1363 29.9346 29.7672 30.2164 29.3982 30.2164C28.9553 30.2164 28.6601 29.8642 28.6601 29.4415C28.6601 29.0892 29.0291 28.8074 29.3982 28.8074ZM13.0127 25.7076C13.3818 25.8485 13.5294 26.2712 13.3818 26.6234C13.2341 26.9757 12.8651 27.187 12.4961 27.0461C12.0532 26.9052 11.9056 26.4825 12.0532 26.1303C12.2008 25.778 12.6437 25.5667 13.0127 25.7076ZM8.73185 23.735C9.13477 23.9657 9.1919 24.2956 8.96868 24.7178C8.74546 25.1401 8.28128 25.1401 7.94194 24.9288C7.6026 24.7174 7.46628 24.3753 7.7097 23.9916C7.95313 23.608 8.32893 23.5042 8.73185 23.735ZM4.96763 21.0578C5.26286 21.3396 5.26286 21.7623 4.96763 22.0441C4.6724 22.3259 4.22952 22.3259 3.93429 22.0441C3.63906 21.7623 3.63906 21.3396 3.93429 21.0578C4.22952 20.776 4.6724 20.776 4.96763 21.0578ZM50.655 25.7076C51.0593 25.5532 51.4521 25.7428 51.6145 26.1303C51.7769 26.5178 51.5751 26.8921 51.1716 27.0461C50.7681 27.2002 50.3789 27.0215 50.2121 26.6234C50.0453 26.2254 50.2506 25.862 50.655 25.7076ZM48.3704 26.4759C48.8118 26.3799 49.1609 26.6141 49.331 26.9719C49.5011 27.3298 49.3155 27.7099 48.8994 27.8423C48.4832 27.9748 48.0542 27.7477 47.9128 27.4103C47.7715 27.073 47.9291 26.5719 48.3704 26.4759ZM34.2695 28.8074C34.6386 28.8074 35.0076 29.0892 35.0076 29.4415C35.0076 29.8642 34.7124 30.2164 34.2695 30.2164C33.9005 30.2164 33.5314 29.9346 33.5314 29.5119C33.5314 29.1597 33.8267 28.8074 34.2695 28.8074ZM31.8338 2.10663C31.391 2.10663 31.0958 1.75436 31.0958 1.4021C31.0958 0.979396 31.391 0.697599 31.8338 0.697599C32.2029 0.697599 32.5719 0.979396 32.5719 1.4021C32.5719 1.75436 32.2029 2.10663 31.8338 2.10663ZM34.2695 2.10663C33.8267 2.10663 33.5314 1.75436 33.5314 1.4021C33.5314 0.979396 33.9005 0.697599 34.2695 0.697599C34.7124 0.697599 35.0076 1.04986 35.0076 1.47257C35.0076 1.82483 34.6385 2.10663 34.2695 2.10663ZM50.655 5.20646C50.296 5.0694 50.0546 4.66643 50.2121 4.29059C50.3696 3.91476 50.777 3.71723 51.1716 3.86789C51.5662 4.01855 51.7746 4.40153 51.6145 4.78376C51.4543 5.16599 51.0139 5.34351 50.655 5.20646ZM61.179 13.4068C61.0296 13.0248 61.262 12.6824 61.6524 12.5333C62.0428 12.3843 62.4858 12.5867 62.6119 12.9561C62.738 13.3254 62.5452 13.7583 62.0953 13.8719C61.6453 13.9856 61.3284 13.7888 61.179 13.4068Z" transform="translate(0.121338 0.00682068) scale(0.969996)" fill="url(#paint2_linear)" fill-opacity="0.8"/>
<path d="M0 15.4992C0 6.90421 14.245 0 31.9589 0C49.6729 0 63.9178 6.90419 63.9178 15.4992C63.9178 24.0238 49.6728 30.928 31.9589 30.928C14.2449 30.928 0 24.0238 0 15.4992ZM31.9589 2.81803C13.8759 2.81803 2.95212 9.86313 2.95212 15.4992C2.95212 21.0649 13.8758 28.1099 31.9589 28.1099C50.0419 28.1099 60.9657 21.0649 60.9657 15.4992C60.9657 9.86313 50.042 2.81803 31.9589 2.81803ZM30.2613 1.40901C30.2613 0.986306 29.8923 0.704506 29.5232 0.704506C29.0804 0.704506 28.7851 1.05677 28.7851 1.47947C28.7851 1.83174 29.1542 2.11354 29.5232 2.11354C29.9661 2.11354 30.2613 1.76127 30.2613 1.40901ZM27.8256 1.47947C27.7518 1.12721 27.4566 0.845404 27.0137 0.845404C26.6447 0.915873 26.3495 1.19767 26.3495 1.62037C26.3495 1.97264 26.7185 2.32487 27.1613 2.25444C27.5304 2.25444 27.8256 1.90217 27.8256 1.47947ZM25.39 1.69084C25.3161 1.33857 24.9471 1.05677 24.5781 1.1272C24.1352 1.1272 23.84 1.47947 23.9138 1.90217C23.9876 2.25444 24.3566 2.53624 24.7257 2.46577C25.1685 2.46577 25.4637 2.11354 25.39 1.69084ZM22.9543 1.97264C22.8805 1.62037 22.5114 1.33857 22.1424 1.40901C21.6995 1.47947 21.4781 1.83174 21.4781 2.25444C21.5519 2.60667 21.921 2.8885 22.3638 2.81804C22.7329 2.7476 23.0281 2.39534 22.9543 1.97264ZM20.5924 2.39534C20.5186 2.04307 20.0757 1.76127 19.7067 1.83174C19.2639 1.97264 19.0424 2.32487 19.1163 2.67714C19.19 3.09984 19.6329 3.31121 20.0019 3.24074C20.371 3.1703 20.6662 2.74761 20.5924 2.39534ZM18.1567 2.8885C18.0829 2.53624 17.7139 2.32487 17.271 2.39534C16.902 2.53624 16.6806 2.8885 16.7544 3.24074C16.902 3.66344 17.271 3.8748 17.6401 3.7339C18.0829 3.66343 18.3044 3.3112 18.1567 2.8885ZM15.8687 3.52253C15.7211 3.1703 15.2782 2.95893 14.9092 3.09984C14.5401 3.1703 14.3187 3.593 14.4663 3.94527C14.5401 4.36797 14.983 4.50887 15.352 4.4384C15.7949 4.2975 15.9425 3.8748 15.8687 3.52253ZM13.5068 4.2975C13.3592 3.94527 12.9901 3.7339 12.6211 3.8748C12.1783 4.0157 12.0307 4.4384 12.1783 4.79067C12.3259 5.14293 12.7687 5.35427 13.1378 5.21337C13.5068 5.07247 13.6544 4.64977 13.5068 4.2975ZM11.2925 5.14293C11.0711 4.79067 10.6283 4.64977 10.333 4.8611C9.96402 5.00203 9.8164 5.42473 9.96402 5.77697C10.1116 6.12923 10.5545 6.27013 10.9235 6.12923C11.2925 5.91787 11.4402 5.49516 11.2925 5.14293ZM9.07829 6.1997C8.93068 5.84743 8.41405 5.77696 8.11878 5.98833C7.74976 6.1997 7.60215 6.6224 7.82356 6.9042C8.045 7.25646 8.48784 7.39736 8.85689 7.18599C9.22591 6.97463 9.29974 6.55193 9.07829 6.1997ZM7.01166 7.4678C6.79025 7.11553 6.34741 7.0451 5.97836 7.25646C5.68313 7.53826 5.6093 7.96096 5.83074 8.24276C6.12597 8.59503 6.56881 8.66546 6.86404 8.45413C7.2331 8.17229 7.30692 7.7496 7.01166 7.4678ZM5.09267 8.87683C4.79744 8.59503 4.35456 8.59503 4.05933 8.87683C3.7641 9.15863 3.7641 9.58133 4.05933 9.86312C4.35456 10.1449 4.79744 10.1449 5.09267 9.86312C5.3879 9.58133 5.3879 9.15863 5.09267 8.87683ZM3.46887 10.5676C3.09982 10.3563 2.65698 10.4267 2.43557 10.7086C2.21413 11.0608 2.28792 11.4835 2.58319 11.6949C2.95221 11.9062 3.39505 11.8358 3.61649 11.554C3.83793 11.2017 3.7641 10.779 3.46887 10.5676ZM2.14031 12.5403C1.77129 12.3994 1.32845 12.6107 1.1808 12.963C1.03318 13.3152 1.25462 13.7379 1.62368 13.8788C2.06652 13.9493 2.43557 13.8084 2.58319 13.3857C2.7308 13.0334 2.50936 12.6812 2.14031 12.5403ZM32.697 29.5189C32.697 29.1667 32.328 28.8144 31.9589 28.8144C31.5161 28.8144 31.2209 29.1667 31.2209 29.5189C31.2209 29.9417 31.5161 30.2235 31.9589 30.2235C32.328 30.2235 32.697 29.9417 32.697 29.5189ZM30.2613 29.5189C30.2613 29.1667 29.9661 28.8144 29.5232 28.8144C29.1542 28.8144 28.7852 29.0962 28.7852 29.4485C28.7852 29.8712 29.0804 30.2235 29.5232 30.2235C29.8923 30.2235 30.2613 29.9417 30.2613 29.5189ZM27.8256 29.4485C27.8256 29.0258 27.5304 28.6735 27.1614 28.6735C26.7185 28.6735 26.3495 28.9553 26.3495 29.3076C26.3495 29.7303 26.6447 30.0121 27.0138 30.0826C27.4566 30.0826 27.7519 29.8008 27.8256 29.4485ZM25.39 29.2371C25.4638 28.8144 25.1685 28.4622 24.7257 28.4622C24.3567 28.3917 23.9876 28.6735 23.9138 29.0258C23.84 29.4485 24.1352 29.8008 24.5781 29.8712C24.9471 29.8712 25.3162 29.5894 25.39 29.2371ZM22.9543 28.9553C23.0281 28.5326 22.7329 28.1804 22.3638 28.1099C21.921 28.0395 21.5519 28.3213 21.5519 28.6735C21.4782 29.0962 21.6996 29.4485 22.1424 29.5189C22.5115 29.5894 22.8805 29.3076 22.9543 28.9553ZM20.5924 28.5326C20.6663 28.1804 20.371 27.7577 20.002 27.6872C19.6329 27.6168 19.1901 27.8281 19.1163 28.2508C19.0425 28.6031 19.2639 29.0258 19.7067 29.0962C20.0758 29.1667 20.5186 28.8849 20.5924 28.5326ZM18.1568 28.0395C18.3044 27.6872 18.0829 27.2645 17.6401 27.1941C17.271 27.0532 16.902 27.2645 16.7544 27.6872C16.6806 28.0395 16.902 28.3917 17.2711 28.5326C17.7139 28.6031 18.0829 28.3917 18.1568 28.0395ZM15.8687 27.4054C15.9425 27.0532 15.7949 26.6305 15.352 26.4896C14.983 26.4191 14.5402 26.6305 14.4663 26.9827C14.3187 27.335 14.5402 27.7577 14.9092 27.8281C15.2782 27.969 15.7211 27.7577 15.8687 27.4054ZM13.5068 26.6305C13.6544 26.2782 13.5068 25.8555 13.1378 25.7146C12.7688 25.5737 12.3259 25.785 12.1783 26.1373C12.0307 26.4896 12.1783 26.9123 12.6211 27.0532C12.9902 27.1941 13.3592 26.9827 13.5068 26.6305ZM11.2926 25.785C11.4402 25.4328 11.2926 25.0101 10.9236 24.7987C10.5545 24.6578 10.1117 24.7987 9.96404 25.151C9.81643 25.5032 9.96404 25.9259 10.3331 26.0668C10.6283 26.2782 11.0712 26.1373 11.2926 25.785ZM9.07832 24.7283C9.29976 24.376 9.22594 23.9533 8.85692 23.742C8.48786 23.5306 8.04502 23.6715 7.82358 24.0238C7.60218 24.3056 7.74979 24.7987 8.11881 24.9396C8.41407 25.151 8.93071 25.0805 9.07832 24.7283ZM7.01168 23.4602C7.30695 23.1784 7.23312 22.7556 6.86407 22.4738C6.56884 22.2625 6.126 22.3329 5.83077 22.6852C5.60933 22.967 5.68315 23.3897 5.97838 23.6715C6.34744 23.8829 6.79028 23.8124 7.01168 23.4602ZM5.0927 22.0511C5.38793 21.7694 5.38793 21.3466 5.0927 21.0648C4.79747 20.7831 4.35459 20.7831 4.05936 21.0648C3.76413 21.3466 3.76413 21.7694 4.05936 22.0511C4.35459 22.3329 4.79747 22.3329 5.0927 22.0511ZM3.4689 20.3603C3.76413 20.149 3.83795 19.7263 3.61652 19.374C3.39508 19.0922 2.95223 19.0217 2.58321 19.2331C2.28795 19.4444 2.21416 19.8672 2.4356 20.2194C2.657 20.5012 3.09985 20.5717 3.4689 20.3603ZM2.14034 18.3877C2.50939 18.3173 2.73083 17.8946 2.58321 17.5423C2.4356 17.1196 2.06655 16.9787 1.6237 17.0491C1.25465 17.19 1.03321 17.6128 1.18082 17.965C1.32847 18.3173 1.77132 18.5286 2.14034 18.3877ZM1.47609 16.2037C1.91893 16.1333 2.21416 15.8515 2.21416 15.4288C2.21416 15.0765 1.84511 14.7243 1.40226 14.7947C1.03321 14.7947 0.737979 15.0765 0.737979 15.4992C0.737979 15.8515 1.10703 16.2037 1.47609 16.2037ZM62.4418 14.7947C62.0727 14.7243 61.7037 15.0765 61.7037 15.4288C61.7037 15.8515 61.9989 16.1333 62.4418 16.2037C62.8108 16.2037 63.1799 15.8515 63.1799 15.4992C63.1799 15.0765 62.8846 14.7947 62.4418 14.7947ZM62.2204 17.0491C61.8513 16.9787 61.4085 17.1196 61.3346 17.5423C61.187 17.8946 61.4085 18.3173 61.7775 18.3877C62.1465 18.5286 62.5894 18.3173 62.737 17.965C62.8108 17.6128 62.6632 17.19 62.2204 17.0491ZM61.3346 19.2331C60.9656 19.0217 60.5228 19.0922 60.3013 19.374C60.0061 19.7263 60.1537 20.149 60.449 20.3603C60.818 20.5717 61.2608 20.5012 61.4823 20.2194C61.7037 19.8672 61.6299 19.4444 61.3346 19.2331ZM59.8585 21.0648C59.5633 20.7831 59.0466 20.7831 58.7514 21.0648C58.5299 21.3466 58.5299 21.7694 58.7514 22.0511C59.0466 22.3329 59.5633 22.3329 59.8585 22.0511C60.0799 21.7694 60.0799 21.3466 59.8585 21.0648ZM58.0133 22.6852C57.7918 22.3329 57.349 22.2625 57.0538 22.4738C56.6847 22.7556 56.6109 23.1784 56.8323 23.4602C57.1276 23.8124 57.5704 23.8829 57.8656 23.6715C58.2347 23.3897 58.3085 22.967 58.0133 22.6852ZM56.0204 24.0238C55.8728 23.6715 55.3562 23.5306 55.0609 23.742C54.6919 23.9533 54.5443 24.3761 54.7657 24.7283C54.9871 25.0805 55.43 25.151 55.799 24.9396C56.1681 24.7987 56.2419 24.3056 56.0204 24.0238ZM53.9538 25.151C53.7324 24.7987 53.2896 24.6578 52.9205 24.7987C52.5514 25.0101 52.4038 25.4328 52.6253 25.785C52.7729 26.1373 53.2157 26.2782 53.5848 26.0668C53.9538 25.9259 54.1014 25.5032 53.9538 25.151ZM51.7396 26.1373C51.5919 25.785 51.1491 25.5737 50.78 25.7146C50.411 25.8555 50.1896 26.2782 50.3372 26.6305C50.4848 26.9827 50.9277 27.1941 51.2967 27.0532C51.6658 26.9123 51.8872 26.4896 51.7396 26.1373ZM49.4515 26.9827C49.3039 26.6305 48.9348 26.4191 48.492 26.4896C48.1229 26.6305 47.9015 27.0532 48.0492 27.4054C48.1968 27.7577 48.5658 27.969 49.0087 27.8281C49.3777 27.7577 49.5991 27.335 49.4515 26.9827ZM47.1634 27.6872C47.0158 27.2645 46.6468 27.0532 46.204 27.1941C45.8349 27.2645 45.6135 27.6872 45.6873 28.0395C45.8349 28.3917 46.204 28.6031 46.573 28.5326C47.0158 28.3917 47.2373 28.0395 47.1634 27.6872ZM44.8016 28.2508C44.6539 27.8281 44.2849 27.6168 43.9159 27.6872C43.473 27.7577 43.2516 28.1804 43.3254 28.5326C43.3992 28.8849 43.7683 29.1667 44.2111 29.0962C44.5802 29.0258 44.8754 28.6031 44.8016 28.2508ZM42.3659 28.6735C42.2921 28.3213 41.9231 28.0395 41.554 28.1099C41.1112 28.1804 40.8897 28.5326 40.8897 28.9553C40.9635 29.3076 41.3326 29.5894 41.7754 29.5189C42.1445 29.4485 42.4397 29.0962 42.3659 28.6735ZM40.004 29.0258C39.9302 28.6735 39.5612 28.3917 39.1184 28.4622C38.7493 28.4622 38.4541 28.8144 38.5279 29.2371C38.5279 29.5894 38.8969 29.8712 39.3398 29.8712C39.7088 29.8008 40.004 29.4485 40.004 29.0258ZM37.5683 29.3076C37.4946 28.9553 37.1993 28.6735 36.7565 28.6735C36.3874 28.6735 36.0184 29.0258 36.0922 29.4485C36.0922 29.8008 36.4612 30.0826 36.9041 30.0826C37.2731 30.0121 37.5683 29.7303 37.5683 29.3076ZM35.1327 29.4485C35.1327 29.0962 34.7636 28.8144 34.3946 28.8144C33.9517 28.8144 33.6565 29.1667 33.6565 29.5189C33.6565 29.9417 34.0256 30.2235 34.3946 30.2235C34.8375 30.2235 35.1327 29.8712 35.1327 29.4485ZM31.2208 1.40913C31.2208 1.76139 31.5161 2.11366 31.9589 2.11366C32.328 2.11366 32.697 1.76139 32.697 1.40913C32.697 0.986426 32.328 0.704628 31.9589 0.704628C31.5161 0.704628 31.2208 0.986426 31.2208 1.40913ZM33.6565 1.40913C33.6565 1.76139 33.9517 2.11366 34.3946 2.11366C34.7636 2.11366 35.1327 1.83186 35.1327 1.4796C35.1327 1.05689 34.8375 0.704628 34.3946 0.704628C34.0256 0.704628 33.6565 0.986426 33.6565 1.40913ZM36.0922 1.4796C36.0184 1.90229 36.3874 2.25456 36.7565 2.25456C37.1993 2.32499 37.4945 1.97276 37.5683 1.62049C37.5683 1.19779 37.2731 0.915993 36.9041 0.845527C36.4612 0.845527 36.0922 1.12733 36.0922 1.4796ZM38.5278 1.69096C38.4541 2.11366 38.7493 2.46589 39.1183 2.46589C39.5612 2.53636 39.9302 2.25456 40.004 1.90229C40.004 1.47959 39.7088 1.12732 39.3397 1.12732C38.8969 1.05689 38.5278 1.3387 38.5278 1.69096ZM40.8897 1.97276C40.8897 2.39546 41.1112 2.74773 41.554 2.81816C41.9231 2.88863 42.2921 2.60679 42.3659 2.25456C42.4397 1.83186 42.1445 1.47959 41.7754 1.40913C41.3326 1.33869 40.9635 1.62049 40.8897 1.97276ZM43.3254 2.39546C43.2516 2.74772 43.473 3.17043 43.9159 3.24086C44.2849 3.31132 44.6539 3.09996 44.8016 2.67726C44.8754 2.32499 44.5801 1.97276 44.2111 1.83186C43.7682 1.76139 43.3992 2.04319 43.3254 2.39546ZM45.6873 2.88862C45.6134 3.31133 45.8349 3.66356 46.2039 3.73402C46.6468 3.87492 47.0158 3.66355 47.1634 3.24086C47.2372 2.88862 47.0158 2.53636 46.573 2.39546C46.2039 2.32499 45.8349 2.53636 45.6873 2.88862ZM48.0491 3.52266C47.9015 3.87492 48.1229 4.29762 48.492 4.43852C48.9348 4.50899 49.3039 4.36809 49.4515 3.94539C49.5991 3.59312 49.3777 3.17042 49.0087 3.09996C48.5658 2.95906 48.1968 3.17042 48.0491 3.52266ZM50.3372 4.29762C50.1896 4.64989 50.411 5.07259 50.78 5.21349C51.1491 5.35439 51.5919 5.14306 51.7395 4.79079C51.8872 4.43852 51.6658 4.01582 51.2967 3.87492C50.9277 3.73402 50.4848 3.94539 50.3372 4.29762ZM52.6253 5.14306C52.4038 5.49529 52.5514 5.91799 52.9205 6.12935C53.2895 6.27025 53.7324 6.12935 53.9538 5.77709C54.1014 5.42485 53.9538 5.00216 53.5848 4.86122C53.2157 4.64989 52.7729 4.79079 52.6253 5.14306ZM54.7657 6.19982C54.5443 6.55205 54.6919 6.97475 55.0609 7.18612C55.3561 7.39749 55.8728 7.25659 56.0204 6.90432C56.2419 6.62252 56.168 6.19982 55.799 5.98845C55.43 5.77709 54.9871 5.84755 54.7657 6.19982ZM56.8323 7.46792C56.6109 7.74972 56.6847 8.17242 57.0538 8.45425C57.349 8.66559 57.7918 8.59515 58.0133 8.24288C58.3085 7.96109 58.2347 7.53839 57.8656 7.25659C57.5704 7.04522 57.1276 7.11565 56.8323 7.46792ZM58.7514 8.87695C58.5299 9.15875 58.5299 9.58145 58.7514 9.86325C59.0466 10.145 59.5633 10.145 59.8585 9.86325C60.0799 9.58145 60.0799 9.15875 59.8585 8.87695C59.5633 8.59515 59.0466 8.59515 58.7514 8.87695ZM60.4489 10.5677C60.1537 10.7791 60.0061 11.2018 60.3013 11.5541C60.5228 11.8359 60.9656 11.9063 61.3346 11.695C61.6299 11.4836 61.7037 11.0609 61.4823 10.7087C61.2608 10.4268 60.818 10.3564 60.4489 10.5677ZM61.7775 12.5404C61.4084 12.6813 61.187 13.0335 61.3346 13.3858C61.4085 13.8085 61.8513 13.9494 62.2203 13.8789C62.6632 13.738 62.8108 13.3153 62.737 12.9631C62.5894 12.6108 62.1465 12.3995 61.7775 12.5404Z" transform="scale(0.969996)" fill="url(#paint3_linear)"/>
<path d="M0 15.4992C0 6.90421 14.245 0 31.9589 0C49.6729 0 63.9178 6.90419 63.9178 15.4992C63.9178 24.0238 49.6728 30.928 31.9589 30.928C14.2449 30.928 0 24.0238 0 15.4992ZM31.9589 2.81803C13.8759 2.81803 2.95212 9.86313 2.95212 15.4992C2.95212 21.0649 13.8758 28.1099 31.9589 28.1099C50.0419 28.1099 60.9657 21.0649 60.9657 15.4992C60.9657 9.86313 50.042 2.81803 31.9589 2.81803ZM30.2613 1.40901C30.2613 0.986306 29.8923 0.704506 29.5232 0.704506C29.0804 0.704506 28.7851 1.05677 28.7851 1.47947C28.7851 1.83174 29.1542 2.11354 29.5232 2.11354C29.9661 2.11354 30.2613 1.76127 30.2613 1.40901ZM27.8256 1.47947C27.7518 1.12721 27.4566 0.845404 27.0137 0.845404C26.6447 0.915873 26.3495 1.19767 26.3495 1.62037C26.3495 1.97264 26.7185 2.32487 27.1613 2.25444C27.5304 2.25444 27.8256 1.90217 27.8256 1.47947ZM25.39 1.69084C25.3161 1.33857 24.9471 1.05677 24.5781 1.1272C24.1352 1.1272 23.84 1.47947 23.9138 1.90217C23.9876 2.25444 24.3566 2.53624 24.7257 2.46577C25.1685 2.46577 25.4637 2.11354 25.39 1.69084ZM22.9543 1.97264C22.8805 1.62037 22.5114 1.33857 22.1424 1.40901C21.6995 1.47947 21.4781 1.83174 21.4781 2.25444C21.5519 2.60667 21.921 2.8885 22.3638 2.81804C22.7329 2.7476 23.0281 2.39534 22.9543 1.97264ZM20.5924 2.39534C20.5186 2.04307 20.0757 1.76127 19.7067 1.83174C19.2639 1.97264 19.0424 2.32487 19.1163 2.67714C19.19 3.09984 19.6329 3.31121 20.0019 3.24074C20.371 3.1703 20.6662 2.74761 20.5924 2.39534ZM18.1567 2.8885C18.0829 2.53624 17.7139 2.32487 17.271 2.39534C16.902 2.53624 16.6806 2.8885 16.7544 3.24074C16.902 3.66344 17.271 3.8748 17.6401 3.7339C18.0829 3.66343 18.3044 3.3112 18.1567 2.8885ZM15.8687 3.52253C15.7211 3.1703 15.2782 2.95893 14.9092 3.09984C14.5401 3.1703 14.3187 3.593 14.4663 3.94527C14.5401 4.36797 14.983 4.50887 15.352 4.4384C15.7949 4.2975 15.9425 3.8748 15.8687 3.52253ZM13.5068 4.2975C13.3592 3.94527 12.9901 3.7339 12.6211 3.8748C12.1783 4.0157 12.0307 4.4384 12.1783 4.79067C12.3259 5.14293 12.7687 5.35427 13.1378 5.21337C13.5068 5.07247 13.6544 4.64977 13.5068 4.2975ZM11.2925 5.14293C11.0711 4.79067 10.6283 4.64977 10.333 4.8611C9.96402 5.00203 9.8164 5.42473 9.96402 5.77697C10.1116 6.12923 10.5545 6.27013 10.9235 6.12923C11.2925 5.91787 11.4402 5.49516 11.2925 5.14293ZM9.07829 6.1997C8.93068 5.84743 8.41405 5.77696 8.11878 5.98833C7.74976 6.1997 7.60215 6.6224 7.82356 6.9042C8.045 7.25646 8.48784 7.39736 8.85689 7.18599C9.22591 6.97463 9.29974 6.55193 9.07829 6.1997ZM7.01166 7.4678C6.79025 7.11553 6.34741 7.0451 5.97836 7.25646C5.68313 7.53826 5.6093 7.96096 5.83074 8.24276C6.12597 8.59503 6.56881 8.66546 6.86404 8.45413C7.2331 8.17229 7.30692 7.7496 7.01166 7.4678ZM5.09267 8.87683C4.79744 8.59503 4.35456 8.59503 4.05933 8.87683C3.7641 9.15863 3.7641 9.58133 4.05933 9.86312C4.35456 10.1449 4.79744 10.1449 5.09267 9.86312C5.3879 9.58133 5.3879 9.15863 5.09267 8.87683ZM3.46887 10.5676C3.09982 10.3563 2.65698 10.4267 2.43557 10.7086C2.21413 11.0608 2.28792 11.4835 2.58319 11.6949C2.95221 11.9062 3.39505 11.8358 3.61649 11.554C3.83793 11.2017 3.7641 10.779 3.46887 10.5676ZM2.14031 12.5403C1.77129 12.3994 1.32845 12.6107 1.1808 12.963C1.03318 13.3152 1.25462 13.7379 1.62368 13.8788C2.06652 13.9493 2.43557 13.8084 2.58319 13.3857C2.7308 13.0334 2.50936 12.6812 2.14031 12.5403ZM32.697 29.5189C32.697 29.1667 32.328 28.8144 31.9589 28.8144C31.5161 28.8144 31.2209 29.1667 31.2209 29.5189C31.2209 29.9417 31.5161 30.2235 31.9589 30.2235C32.328 30.2235 32.697 29.9417 32.697 29.5189ZM30.2613 29.5189C30.2613 29.1667 29.9661 28.8144 29.5232 28.8144C29.1542 28.8144 28.7852 29.0962 28.7852 29.4485C28.7852 29.8712 29.0804 30.2235 29.5232 30.2235C29.8923 30.2235 30.2613 29.9417 30.2613 29.5189ZM27.8256 29.4485C27.8256 29.0258 27.5304 28.6735 27.1614 28.6735C26.7185 28.6735 26.3495 28.9553 26.3495 29.3076C26.3495 29.7303 26.6447 30.0121 27.0138 30.0826C27.4566 30.0826 27.7519 29.8008 27.8256 29.4485ZM25.39 29.2371C25.4638 28.8144 25.1685 28.4622 24.7257 28.4622C24.3567 28.3917 23.9876 28.6735 23.9138 29.0258C23.84 29.4485 24.1352 29.8008 24.5781 29.8712C24.9471 29.8712 25.3162 29.5894 25.39 29.2371ZM22.9543 28.9553C23.0281 28.5326 22.7329 28.1804 22.3638 28.1099C21.921 28.0395 21.5519 28.3213 21.5519 28.6735C21.4782 29.0962 21.6996 29.4485 22.1424 29.5189C22.5115 29.5894 22.8805 29.3076 22.9543 28.9553ZM20.5924 28.5326C20.6663 28.1804 20.371 27.7577 20.002 27.6872C19.6329 27.6168 19.1901 27.8281 19.1163 28.2508C19.0425 28.6031 19.2639 29.0258 19.7067 29.0962C20.0758 29.1667 20.5186 28.8849 20.5924 28.5326ZM18.1568 28.0395C18.3044 27.6872 18.0829 27.2645 17.6401 27.1941C17.271 27.0532 16.902 27.2645 16.7544 27.6872C16.6806 28.0395 16.902 28.3917 17.2711 28.5326C17.7139 28.6031 18.0829 28.3917 18.1568 28.0395ZM15.8687 27.4054C15.9425 27.0532 15.7949 26.6305 15.352 26.4896C14.983 26.4191 14.5402 26.6305 14.4663 26.9827C14.3187 27.335 14.5402 27.7577 14.9092 27.8281C15.2782 27.969 15.7211 27.7577 15.8687 27.4054ZM13.5068 26.6305C13.6544 26.2782 13.5068 25.8555 13.1378 25.7146C12.7688 25.5737 12.3259 25.785 12.1783 26.1373C12.0307 26.4896 12.1783 26.9123 12.6211 27.0532C12.9902 27.1941 13.3592 26.9827 13.5068 26.6305ZM11.2926 25.785C11.4402 25.4328 11.2926 25.0101 10.9236 24.7987C10.5545 24.6578 10.1117 24.7987 9.96404 25.151C9.81643 25.5032 9.96404 25.9259 10.3331 26.0668C10.6283 26.2782 11.0712 26.1373 11.2926 25.785ZM9.07832 24.7283C9.29976 24.376 9.22594 23.9533 8.85692 23.742C8.48786 23.5306 8.04502 23.6715 7.82358 24.0238C7.60218 24.3056 7.74979 24.7987 8.11881 24.9396C8.41407 25.151 8.93071 25.0805 9.07832 24.7283ZM7.01168 23.4602C7.30695 23.1784 7.23312 22.7556 6.86407 22.4738C6.56884 22.2625 6.126 22.3329 5.83077 22.6852C5.60933 22.967 5.68315 23.3897 5.97838 23.6715C6.34744 23.8829 6.79028 23.8124 7.01168 23.4602ZM5.0927 22.0511C5.38793 21.7694 5.38793 21.3466 5.0927 21.0648C4.79747 20.7831 4.35459 20.7831 4.05936 21.0648C3.76413 21.3466 3.76413 21.7694 4.05936 22.0511C4.35459 22.3329 4.79747 22.3329 5.0927 22.0511ZM3.4689 20.3603C3.76413 20.149 3.83795 19.7263 3.61652 19.374C3.39508 19.0922 2.95223 19.0217 2.58321 19.2331C2.28795 19.4444 2.21416 19.8672 2.4356 20.2194C2.657 20.5012 3.09985 20.5717 3.4689 20.3603ZM2.14034 18.3877C2.50939 18.3173 2.73083 17.8946 2.58321 17.5423C2.4356 17.1196 2.06655 16.9787 1.6237 17.0491C1.25465 17.19 1.03321 17.6128 1.18082 17.965C1.32847 18.3173 1.77132 18.5286 2.14034 18.3877ZM1.47609 16.2037C1.91893 16.1333 2.21416 15.8515 2.21416 15.4288C2.21416 15.0765 1.84511 14.7243 1.40226 14.7947C1.03321 14.7947 0.737979 15.0765 0.737979 15.4992C0.737979 15.8515 1.10703 16.2037 1.47609 16.2037ZM62.4418 14.7947C62.0727 14.7243 61.7037 15.0765 61.7037 15.4288C61.7037 15.8515 61.9989 16.1333 62.4418 16.2037C62.8108 16.2037 63.1799 15.8515 63.1799 15.4992C63.1799 15.0765 62.8846 14.7947 62.4418 14.7947ZM62.2204 17.0491C61.8513 16.9787 61.4085 17.1196 61.3346 17.5423C61.187 17.8946 61.4085 18.3173 61.7775 18.3877C62.1465 18.5286 62.5894 18.3173 62.737 17.965C62.8108 17.6128 62.6632 17.19 62.2204 17.0491ZM61.3346 19.2331C60.9656 19.0217 60.5228 19.0922 60.3013 19.374C60.0061 19.7263 60.1537 20.149 60.449 20.3603C60.818 20.5717 61.2608 20.5012 61.4823 20.2194C61.7037 19.8672 61.6299 19.4444 61.3346 19.2331ZM59.8585 21.0648C59.5633 20.7831 59.0466 20.7831 58.7514 21.0648C58.5299 21.3466 58.5299 21.7694 58.7514 22.0511C59.0466 22.3329 59.5633 22.3329 59.8585 22.0511C60.0799 21.7694 60.0799 21.3466 59.8585 21.0648ZM58.0133 22.6852C57.7918 22.3329 57.349 22.2625 57.0538 22.4738C56.6847 22.7556 56.6109 23.1784 56.8323 23.4602C57.1276 23.8124 57.5704 23.8829 57.8656 23.6715C58.2347 23.3897 58.3085 22.967 58.0133 22.6852ZM56.0204 24.0238C55.8728 23.6715 55.3562 23.5306 55.0609 23.742C54.6919 23.9533 54.5443 24.3761 54.7657 24.7283C54.9871 25.0805 55.43 25.151 55.799 24.9396C56.1681 24.7987 56.2419 24.3056 56.0204 24.0238ZM53.9538 25.151C53.7324 24.7987 53.2896 24.6578 52.9205 24.7987C52.5514 25.0101 52.4038 25.4328 52.6253 25.785C52.7729 26.1373 53.2157 26.2782 53.5848 26.0668C53.9538 25.9259 54.1014 25.5032 53.9538 25.151ZM51.7396 26.1373C51.5919 25.785 51.1491 25.5737 50.78 25.7146C50.411 25.8555 50.1896 26.2782 50.3372 26.6305C50.4848 26.9827 50.9277 27.1941 51.2967 27.0532C51.6658 26.9123 51.8872 26.4896 51.7396 26.1373ZM49.4515 26.9827C49.3039 26.6305 48.9348 26.4191 48.492 26.4896C48.1229 26.6305 47.9015 27.0532 48.0492 27.4054C48.1968 27.7577 48.5658 27.969 49.0087 27.8281C49.3777 27.7577 49.5991 27.335 49.4515 26.9827ZM47.1634 27.6872C47.0158 27.2645 46.6468 27.0532 46.204 27.1941C45.8349 27.2645 45.6135 27.6872 45.6873 28.0395C45.8349 28.3917 46.204 28.6031 46.573 28.5326C47.0158 28.3917 47.2373 28.0395 47.1634 27.6872ZM44.8016 28.2508C44.6539 27.8281 44.2849 27.6168 43.9159 27.6872C43.473 27.7577 43.2516 28.1804 43.3254 28.5326C43.3992 28.8849 43.7683 29.1667 44.2111 29.0962C44.5802 29.0258 44.8754 28.6031 44.8016 28.2508ZM42.3659 28.6735C42.2921 28.3213 41.9231 28.0395 41.554 28.1099C41.1112 28.1804 40.8897 28.5326 40.8897 28.9553C40.9635 29.3076 41.3326 29.5894 41.7754 29.5189C42.1445 29.4485 42.4397 29.0962 42.3659 28.6735ZM40.004 29.0258C39.9302 28.6735 39.5612 28.3917 39.1184 28.4622C38.7493 28.4622 38.4541 28.8144 38.5279 29.2371C38.5279 29.5894 38.8969 29.8712 39.3398 29.8712C39.7088 29.8008 40.004 29.4485 40.004 29.0258ZM37.5683 29.3076C37.4946 28.9553 37.1993 28.6735 36.7565 28.6735C36.3874 28.6735 36.0184 29.0258 36.0922 29.4485C36.0922 29.8008 36.4612 30.0826 36.9041 30.0826C37.2731 30.0121 37.5683 29.7303 37.5683 29.3076ZM35.1327 29.4485C35.1327 29.0962 34.7636 28.8144 34.3946 28.8144C33.9517 28.8144 33.6565 29.1667 33.6565 29.5189C33.6565 29.9417 34.0256 30.2235 34.3946 30.2235C34.8375 30.2235 35.1327 29.8712 35.1327 29.4485ZM31.2208 1.40913C31.2208 1.76139 31.5161 2.11366 31.9589 2.11366C32.328 2.11366 32.697 1.76139 32.697 1.40913C32.697 0.986426 32.328 0.704628 31.9589 0.704628C31.5161 0.704628 31.2208 0.986426 31.2208 1.40913ZM33.6565 1.40913C33.6565 1.76139 33.9517 2.11366 34.3946 2.11366C34.7636 2.11366 35.1327 1.83186 35.1327 1.4796C35.1327 1.05689 34.8375 0.704628 34.3946 0.704628C34.0256 0.704628 33.6565 0.986426 33.6565 1.40913ZM36.0922 1.4796C36.0184 1.90229 36.3874 2.25456 36.7565 2.25456C37.1993 2.32499 37.4945 1.97276 37.5683 1.62049C37.5683 1.19779 37.2731 0.915993 36.9041 0.845527C36.4612 0.845527 36.0922 1.12733 36.0922 1.4796ZM38.5278 1.69096C38.4541 2.11366 38.7493 2.46589 39.1183 2.46589C39.5612 2.53636 39.9302 2.25456 40.004 1.90229C40.004 1.47959 39.7088 1.12732 39.3397 1.12732C38.8969 1.05689 38.5278 1.3387 38.5278 1.69096ZM40.8897 1.97276C40.8897 2.39546 41.1112 2.74773 41.554 2.81816C41.9231 2.88863 42.2921 2.60679 42.3659 2.25456C42.4397 1.83186 42.1445 1.47959 41.7754 1.40913C41.3326 1.33869 40.9635 1.62049 40.8897 1.97276ZM43.3254 2.39546C43.2516 2.74772 43.473 3.17043 43.9159 3.24086C44.2849 3.31132 44.6539 3.09996 44.8016 2.67726C44.8754 2.32499 44.5801 1.97276 44.2111 1.83186C43.7682 1.76139 43.3992 2.04319 43.3254 2.39546ZM45.6873 2.88862C45.6134 3.31133 45.8349 3.66356 46.2039 3.73402C46.6468 3.87492 47.0158 3.66355 47.1634 3.24086C47.2372 2.88862 47.0158 2.53636 46.573 2.39546C46.2039 2.32499 45.8349 2.53636 45.6873 2.88862ZM48.0491 3.52266C47.9015 3.87492 48.1229 4.29762 48.492 4.43852C48.9348 4.50899 49.3039 4.36809 49.4515 3.94539C49.5991 3.59312 49.3777 3.17042 49.0087 3.09996C48.5658 2.95906 48.1968 3.17042 48.0491 3.52266ZM50.3372 4.29762C50.1896 4.64989 50.411 5.07259 50.78 5.21349C51.1491 5.35439 51.5919 5.14306 51.7395 4.79079C51.8872 4.43852 51.6658 4.01582 51.2967 3.87492C50.9277 3.73402 50.4848 3.94539 50.3372 4.29762ZM52.6253 5.14306C52.4038 5.49529 52.5514 5.91799 52.9205 6.12935C53.2895 6.27025 53.7324 6.12935 53.9538 5.77709C54.1014 5.42485 53.9538 5.00216 53.5848 4.86122C53.2157 4.64989 52.7729 4.79079 52.6253 5.14306ZM54.7657 6.19982C54.5443 6.55205 54.6919 6.97475 55.0609 7.18612C55.3561 7.39749 55.8728 7.25659 56.0204 6.90432C56.2419 6.62252 56.168 6.19982 55.799 5.98845C55.43 5.77709 54.9871 5.84755 54.7657 6.19982ZM56.8323 7.46792C56.6109 7.74972 56.6847 8.17242 57.0538 8.45425C57.349 8.66559 57.7918 8.59515 58.0133 8.24288C58.3085 7.96109 58.2347 7.53839 57.8656 7.25659C57.5704 7.04522 57.1276 7.11565 56.8323 7.46792ZM58.7514 8.87695C58.5299 9.15875 58.5299 9.58145 58.7514 9.86325C59.0466 10.145 59.5633 10.145 59.8585 9.86325C60.0799 9.58145 60.0799 9.15875 59.8585 8.87695C59.5633 8.59515 59.0466 8.59515 58.7514 8.87695ZM60.4489 10.5677C60.1537 10.7791 60.0061 11.2018 60.3013 11.5541C60.5228 11.8359 60.9656 11.9063 61.3346 11.695C61.6299 11.4836 61.7037 11.0609 61.4823 10.7087C61.2608 10.4268 60.818 10.3564 60.4489 10.5677ZM61.7775 12.5404C61.4084 12.6813 61.187 13.0335 61.3346 13.3858C61.4085 13.8085 61.8513 13.9494 62.2203 13.8789C62.6632 13.738 62.8108 13.3153 62.737 12.9631C62.5894 12.6108 62.1465 12.3995 61.7775 12.5404Z" transform="scale(0.969996)" fill="url(#paint4_linear)"/>
<path d="M0 15.4992C0 6.90421 14.245 0 31.9589 0C49.6729 0 63.9178 6.90419 63.9178 15.4992C63.9178 24.0238 49.6728 30.928 31.9589 30.928C14.2449 30.928 0 24.0238 0 15.4992ZM31.9589 2.81803C13.8759 2.81803 2.95212 9.86313 2.95212 15.4992C2.95212 21.0649 13.8758 28.1099 31.9589 28.1099C50.0419 28.1099 60.9657 21.0649 60.9657 15.4992C60.9657 9.86313 50.042 2.81803 31.9589 2.81803ZM30.2613 1.40901C30.2613 0.986306 29.8923 0.704506 29.5232 0.704506C29.0804 0.704506 28.7851 1.05677 28.7851 1.47947C28.7851 1.83174 29.1542 2.11354 29.5232 2.11354C29.9661 2.11354 30.2613 1.76127 30.2613 1.40901ZM27.8256 1.47947C27.7518 1.12721 27.4566 0.845404 27.0137 0.845404C26.6447 0.915873 26.3495 1.19767 26.3495 1.62037C26.3495 1.97264 26.7185 2.32487 27.1613 2.25444C27.5304 2.25444 27.8256 1.90217 27.8256 1.47947ZM25.39 1.69084C25.3161 1.33857 24.9471 1.05677 24.5781 1.1272C24.1352 1.1272 23.84 1.47947 23.9138 1.90217C23.9876 2.25444 24.3566 2.53624 24.7257 2.46577C25.1685 2.46577 25.4637 2.11354 25.39 1.69084ZM22.9543 1.97264C22.8805 1.62037 22.5114 1.33857 22.1424 1.40901C21.6995 1.47947 21.4781 1.83174 21.4781 2.25444C21.5519 2.60667 21.921 2.8885 22.3638 2.81804C22.7329 2.7476 23.0281 2.39534 22.9543 1.97264ZM20.5924 2.39534C20.5186 2.04307 20.0757 1.76127 19.7067 1.83174C19.2639 1.97264 19.0424 2.32487 19.1163 2.67714C19.19 3.09984 19.6329 3.31121 20.0019 3.24074C20.371 3.1703 20.6662 2.74761 20.5924 2.39534ZM18.1567 2.8885C18.0829 2.53624 17.7139 2.32487 17.271 2.39534C16.902 2.53624 16.6806 2.8885 16.7544 3.24074C16.902 3.66344 17.271 3.8748 17.6401 3.7339C18.0829 3.66343 18.3044 3.3112 18.1567 2.8885ZM15.8687 3.52253C15.7211 3.1703 15.2782 2.95893 14.9092 3.09984C14.5401 3.1703 14.3187 3.593 14.4663 3.94527C14.5401 4.36797 14.983 4.50887 15.352 4.4384C15.7949 4.2975 15.9425 3.8748 15.8687 3.52253ZM13.5068 4.2975C13.3592 3.94527 12.9901 3.7339 12.6211 3.8748C12.1783 4.0157 12.0307 4.4384 12.1783 4.79067C12.3259 5.14293 12.7687 5.35427 13.1378 5.21337C13.5068 5.07247 13.6544 4.64977 13.5068 4.2975ZM11.2925 5.14293C11.0711 4.79067 10.6283 4.64977 10.333 4.8611C9.96402 5.00203 9.8164 5.42473 9.96402 5.77697C10.1116 6.12923 10.5545 6.27013 10.9235 6.12923C11.2925 5.91787 11.4402 5.49516 11.2925 5.14293ZM9.07829 6.1997C8.93068 5.84743 8.41405 5.77696 8.11878 5.98833C7.74976 6.1997 7.60215 6.6224 7.82356 6.9042C8.045 7.25646 8.48784 7.39736 8.85689 7.18599C9.22591 6.97463 9.29974 6.55193 9.07829 6.1997ZM7.01166 7.4678C6.79025 7.11553 6.34741 7.0451 5.97836 7.25646C5.68313 7.53826 5.6093 7.96096 5.83074 8.24276C6.12597 8.59503 6.56881 8.66546 6.86404 8.45413C7.2331 8.17229 7.30692 7.7496 7.01166 7.4678ZM5.09267 8.87683C4.79744 8.59503 4.35456 8.59503 4.05933 8.87683C3.7641 9.15863 3.7641 9.58133 4.05933 9.86312C4.35456 10.1449 4.79744 10.1449 5.09267 9.86312C5.3879 9.58133 5.3879 9.15863 5.09267 8.87683ZM3.46887 10.5676C3.09982 10.3563 2.65698 10.4267 2.43557 10.7086C2.21413 11.0608 2.28792 11.4835 2.58319 11.6949C2.95221 11.9062 3.39505 11.8358 3.61649 11.554C3.83793 11.2017 3.7641 10.779 3.46887 10.5676ZM2.14031 12.5403C1.77129 12.3994 1.32845 12.6107 1.1808 12.963C1.03318 13.3152 1.25462 13.7379 1.62368 13.8788C2.06652 13.9493 2.43557 13.8084 2.58319 13.3857C2.7308 13.0334 2.50936 12.6812 2.14031 12.5403ZM32.697 29.5189C32.697 29.1667 32.328 28.8144 31.9589 28.8144C31.5161 28.8144 31.2209 29.1667 31.2209 29.5189C31.2209 29.9417 31.5161 30.2235 31.9589 30.2235C32.328 30.2235 32.697 29.9417 32.697 29.5189ZM30.2613 29.5189C30.2613 29.1667 29.9661 28.8144 29.5232 28.8144C29.1542 28.8144 28.7852 29.0962 28.7852 29.4485C28.7852 29.8712 29.0804 30.2235 29.5232 30.2235C29.8923 30.2235 30.2613 29.9417 30.2613 29.5189ZM27.8256 29.4485C27.8256 29.0258 27.5304 28.6735 27.1614 28.6735C26.7185 28.6735 26.3495 28.9553 26.3495 29.3076C26.3495 29.7303 26.6447 30.0121 27.0138 30.0826C27.4566 30.0826 27.7519 29.8008 27.8256 29.4485ZM25.39 29.2371C25.4638 28.8144 25.1685 28.4622 24.7257 28.4622C24.3567 28.3917 23.9876 28.6735 23.9138 29.0258C23.84 29.4485 24.1352 29.8008 24.5781 29.8712C24.9471 29.8712 25.3162 29.5894 25.39 29.2371ZM22.9543 28.9553C23.0281 28.5326 22.7329 28.1804 22.3638 28.1099C21.921 28.0395 21.5519 28.3213 21.5519 28.6735C21.4782 29.0962 21.6996 29.4485 22.1424 29.5189C22.5115 29.5894 22.8805 29.3076 22.9543 28.9553ZM20.5924 28.5326C20.6663 28.1804 20.371 27.7577 20.002 27.6872C19.6329 27.6168 19.1901 27.8281 19.1163 28.2508C19.0425 28.6031 19.2639 29.0258 19.7067 29.0962C20.0758 29.1667 20.5186 28.8849 20.5924 28.5326ZM18.1568 28.0395C18.3044 27.6872 18.0829 27.2645 17.6401 27.1941C17.271 27.0532 16.902 27.2645 16.7544 27.6872C16.6806 28.0395 16.902 28.3917 17.2711 28.5326C17.7139 28.6031 18.0829 28.3917 18.1568 28.0395ZM15.8687 27.4054C15.9425 27.0532 15.7949 26.6305 15.352 26.4896C14.983 26.4191 14.5402 26.6305 14.4663 26.9827C14.3187 27.335 14.5402 27.7577 14.9092 27.8281C15.2782 27.969 15.7211 27.7577 15.8687 27.4054ZM13.5068 26.6305C13.6544 26.2782 13.5068 25.8555 13.1378 25.7146C12.7688 25.5737 12.3259 25.785 12.1783 26.1373C12.0307 26.4896 12.1783 26.9123 12.6211 27.0532C12.9902 27.1941 13.3592 26.9827 13.5068 26.6305ZM11.2926 25.785C11.4402 25.4328 11.2926 25.0101 10.9236 24.7987C10.5545 24.6578 10.1117 24.7987 9.96404 25.151C9.81643 25.5032 9.96404 25.9259 10.3331 26.0668C10.6283 26.2782 11.0712 26.1373 11.2926 25.785ZM9.07832 24.7283C9.29976 24.376 9.22594 23.9533 8.85692 23.742C8.48786 23.5306 8.04502 23.6715 7.82358 24.0238C7.60218 24.3056 7.74979 24.7987 8.11881 24.9396C8.41407 25.151 8.93071 25.0805 9.07832 24.7283ZM7.01168 23.4602C7.30695 23.1784 7.23312 22.7556 6.86407 22.4738C6.56884 22.2625 6.126 22.3329 5.83077 22.6852C5.60933 22.967 5.68315 23.3897 5.97838 23.6715C6.34744 23.8829 6.79028 23.8124 7.01168 23.4602ZM5.0927 22.0511C5.38793 21.7694 5.38793 21.3466 5.0927 21.0648C4.79747 20.7831 4.35459 20.7831 4.05936 21.0648C3.76413 21.3466 3.76413 21.7694 4.05936 22.0511C4.35459 22.3329 4.79747 22.3329 5.0927 22.0511ZM3.4689 20.3603C3.76413 20.149 3.83795 19.7263 3.61652 19.374C3.39508 19.0922 2.95223 19.0217 2.58321 19.2331C2.28795 19.4444 2.21416 19.8672 2.4356 20.2194C2.657 20.5012 3.09985 20.5717 3.4689 20.3603ZM2.14034 18.3877C2.50939 18.3173 2.73083 17.8946 2.58321 17.5423C2.4356 17.1196 2.06655 16.9787 1.6237 17.0491C1.25465 17.19 1.03321 17.6128 1.18082 17.965C1.32847 18.3173 1.77132 18.5286 2.14034 18.3877ZM1.47609 16.2037C1.91893 16.1333 2.21416 15.8515 2.21416 15.4288C2.21416 15.0765 1.84511 14.7243 1.40226 14.7947C1.03321 14.7947 0.737979 15.0765 0.737979 15.4992C0.737979 15.8515 1.10703 16.2037 1.47609 16.2037ZM62.4418 14.7947C62.0727 14.7243 61.7037 15.0765 61.7037 15.4288C61.7037 15.8515 61.9989 16.1333 62.4418 16.2037C62.8108 16.2037 63.1799 15.8515 63.1799 15.4992C63.1799 15.0765 62.8846 14.7947 62.4418 14.7947ZM62.2204 17.0491C61.8513 16.9787 61.4085 17.1196 61.3346 17.5423C61.187 17.8946 61.4085 18.3173 61.7775 18.3877C62.1465 18.5286 62.5894 18.3173 62.737 17.965C62.8108 17.6128 62.6632 17.19 62.2204 17.0491ZM61.3346 19.2331C60.9656 19.0217 60.5228 19.0922 60.3013 19.374C60.0061 19.7263 60.1537 20.149 60.449 20.3603C60.818 20.5717 61.2608 20.5012 61.4823 20.2194C61.7037 19.8672 61.6299 19.4444 61.3346 19.2331ZM59.8585 21.0648C59.5633 20.7831 59.0466 20.7831 58.7514 21.0648C58.5299 21.3466 58.5299 21.7694 58.7514 22.0511C59.0466 22.3329 59.5633 22.3329 59.8585 22.0511C60.0799 21.7694 60.0799 21.3466 59.8585 21.0648ZM58.0133 22.6852C57.7918 22.3329 57.349 22.2625 57.0538 22.4738C56.6847 22.7556 56.6109 23.1784 56.8323 23.4602C57.1276 23.8124 57.5704 23.8829 57.8656 23.6715C58.2347 23.3897 58.3085 22.967 58.0133 22.6852ZM56.0204 24.0238C55.8728 23.6715 55.3562 23.5306 55.0609 23.742C54.6919 23.9533 54.5443 24.3761 54.7657 24.7283C54.9871 25.0805 55.43 25.151 55.799 24.9396C56.1681 24.7987 56.2419 24.3056 56.0204 24.0238ZM53.9538 25.151C53.7324 24.7987 53.2896 24.6578 52.9205 24.7987C52.5514 25.0101 52.4038 25.4328 52.6253 25.785C52.7729 26.1373 53.2157 26.2782 53.5848 26.0668C53.9538 25.9259 54.1014 25.5032 53.9538 25.151ZM51.7396 26.1373C51.5919 25.785 51.1491 25.5737 50.78 25.7146C50.411 25.8555 50.1896 26.2782 50.3372 26.6305C50.4848 26.9827 50.9277 27.1941 51.2967 27.0532C51.6658 26.9123 51.8872 26.4896 51.7396 26.1373ZM49.4515 26.9827C49.3039 26.6305 48.9348 26.4191 48.492 26.4896C48.1229 26.6305 47.9015 27.0532 48.0492 27.4054C48.1968 27.7577 48.5658 27.969 49.0087 27.8281C49.3777 27.7577 49.5991 27.335 49.4515 26.9827ZM47.1634 27.6872C47.0158 27.2645 46.6468 27.0532 46.204 27.1941C45.8349 27.2645 45.6135 27.6872 45.6873 28.0395C45.8349 28.3917 46.204 28.6031 46.573 28.5326C47.0158 28.3917 47.2373 28.0395 47.1634 27.6872ZM44.8016 28.2508C44.6539 27.8281 44.2849 27.6168 43.9159 27.6872C43.473 27.7577 43.2516 28.1804 43.3254 28.5326C43.3992 28.8849 43.7683 29.1667 44.2111 29.0962C44.5802 29.0258 44.8754 28.6031 44.8016 28.2508ZM42.3659 28.6735C42.2921 28.3213 41.9231 28.0395 41.554 28.1099C41.1112 28.1804 40.8897 28.5326 40.8897 28.9553C40.9635 29.3076 41.3326 29.5894 41.7754 29.5189C42.1445 29.4485 42.4397 29.0962 42.3659 28.6735ZM40.004 29.0258C39.9302 28.6735 39.5612 28.3917 39.1184 28.4622C38.7493 28.4622 38.4541 28.8144 38.5279 29.2371C38.5279 29.5894 38.8969 29.8712 39.3398 29.8712C39.7088 29.8008 40.004 29.4485 40.004 29.0258ZM37.5683 29.3076C37.4946 28.9553 37.1993 28.6735 36.7565 28.6735C36.3874 28.6735 36.0184 29.0258 36.0922 29.4485C36.0922 29.8008 36.4612 30.0826 36.9041 30.0826C37.2731 30.0121 37.5683 29.7303 37.5683 29.3076ZM35.1327 29.4485C35.1327 29.0962 34.7636 28.8144 34.3946 28.8144C33.9517 28.8144 33.6565 29.1667 33.6565 29.5189C33.6565 29.9417 34.0256 30.2235 34.3946 30.2235C34.8375 30.2235 35.1327 29.8712 35.1327 29.4485ZM31.2208 1.40913C31.2208 1.76139 31.5161 2.11366 31.9589 2.11366C32.328 2.11366 32.697 1.76139 32.697 1.40913C32.697 0.986426 32.328 0.704628 31.9589 0.704628C31.5161 0.704628 31.2208 0.986426 31.2208 1.40913ZM33.6565 1.40913C33.6565 1.76139 33.9517 2.11366 34.3946 2.11366C34.7636 2.11366 35.1327 1.83186 35.1327 1.4796C35.1327 1.05689 34.8375 0.704628 34.3946 0.704628C34.0256 0.704628 33.6565 0.986426 33.6565 1.40913ZM36.0922 1.4796C36.0184 1.90229 36.3874 2.25456 36.7565 2.25456C37.1993 2.32499 37.4945 1.97276 37.5683 1.62049C37.5683 1.19779 37.2731 0.915993 36.9041 0.845527C36.4612 0.845527 36.0922 1.12733 36.0922 1.4796ZM38.5278 1.69096C38.4541 2.11366 38.7493 2.46589 39.1183 2.46589C39.5612 2.53636 39.9302 2.25456 40.004 1.90229C40.004 1.47959 39.7088 1.12732 39.3397 1.12732C38.8969 1.05689 38.5278 1.3387 38.5278 1.69096ZM40.8897 1.97276C40.8897 2.39546 41.1112 2.74773 41.554 2.81816C41.9231 2.88863 42.2921 2.60679 42.3659 2.25456C42.4397 1.83186 42.1445 1.47959 41.7754 1.40913C41.3326 1.33869 40.9635 1.62049 40.8897 1.97276ZM43.3254 2.39546C43.2516 2.74772 43.473 3.17043 43.9159 3.24086C44.2849 3.31132 44.6539 3.09996 44.8016 2.67726C44.8754 2.32499 44.5801 1.97276 44.2111 1.83186C43.7682 1.76139 43.3992 2.04319 43.3254 2.39546ZM45.6873 2.88862C45.6134 3.31133 45.8349 3.66356 46.2039 3.73402C46.6468 3.87492 47.0158 3.66355 47.1634 3.24086C47.2372 2.88862 47.0158 2.53636 46.573 2.39546C46.2039 2.32499 45.8349 2.53636 45.6873 2.88862ZM48.0491 3.52266C47.9015 3.87492 48.1229 4.29762 48.492 4.43852C48.9348 4.50899 49.3039 4.36809 49.4515 3.94539C49.5991 3.59312 49.3777 3.17042 49.0087 3.09996C48.5658 2.95906 48.1968 3.17042 48.0491 3.52266ZM50.3372 4.29762C50.1896 4.64989 50.411 5.07259 50.78 5.21349C51.1491 5.35439 51.5919 5.14306 51.7395 4.79079C51.8872 4.43852 51.6658 4.01582 51.2967 3.87492C50.9277 3.73402 50.4848 3.94539 50.3372 4.29762ZM52.6253 5.14306C52.4038 5.49529 52.5514 5.91799 52.9205 6.12935C53.2895 6.27025 53.7324 6.12935 53.9538 5.77709C54.1014 5.42485 53.9538 5.00216 53.5848 4.86122C53.2157 4.64989 52.7729 4.79079 52.6253 5.14306ZM54.7657 6.19982C54.5443 6.55205 54.6919 6.97475 55.0609 7.18612C55.3561 7.39749 55.8728 7.25659 56.0204 6.90432C56.2419 6.62252 56.168 6.19982 55.799 5.98845C55.43 5.77709 54.9871 5.84755 54.7657 6.19982ZM56.8323 7.46792C56.6109 7.74972 56.6847 8.17242 57.0538 8.45425C57.349 8.66559 57.7918 8.59515 58.0133 8.24288C58.3085 7.96109 58.2347 7.53839 57.8656 7.25659C57.5704 7.04522 57.1276 7.11565 56.8323 7.46792ZM58.7514 8.87695C58.5299 9.15875 58.5299 9.58145 58.7514 9.86325C59.0466 10.145 59.5633 10.145 59.8585 9.86325C60.0799 9.58145 60.0799 9.15875 59.8585 8.87695C59.5633 8.59515 59.0466 8.59515 58.7514 8.87695ZM60.4489 10.5677C60.1537 10.7791 60.0061 11.2018 60.3013 11.5541C60.5228 11.8359 60.9656 11.9063 61.3346 11.695C61.6299 11.4836 61.7037 11.0609 61.4823 10.7087C61.2608 10.4268 60.818 10.3564 60.4489 10.5677ZM61.7775 12.5404C61.4084 12.6813 61.187 13.0335 61.3346 13.3858C61.4085 13.8085 61.8513 13.9494 62.2203 13.8789C62.6632 13.738 62.8108 13.3153 62.737 12.9631C62.5894 12.6108 62.1465 12.3995 61.7775 12.5404Z" transform="scale(0.969996)" fill="url(#paint5_linear)"/>
<path fill-rule="evenodd" clip-rule="evenodd" d="M9.2824 26.2483C15.0035 29.0505 22.9749 30.8143 31.9589 30.8143C40.9055 30.8143 48.877 29.0505 54.6075 26.2482C60.3456 23.4423 63.8025 19.6145 63.8025 15.5C63.8025 11.3492 60.3451 7.5035 54.6073 4.68869C48.8769 1.87743 40.9055 0.113636 31.9589 0.113636C22.9749 0.113636 15.0035 1.87745 9.2825 4.68864C3.55439 7.50332 0.115242 11.349 0.115242 15.5C0.115242 19.6147 3.55391 23.4424 9.2824 26.2483ZM0 15.5C0 23.8628 13.9634 30.928 31.9589 30.928C49.8798 30.928 63.9178 23.8628 63.9178 15.5C63.9178 7.06517 49.8797 0 31.9589 0C13.9633 0 0 7.06515 0 15.5Z" transform="scale(0.969996)" fill="url(#paint6_linear)"/>
<path fill-rule="evenodd" clip-rule="evenodd" d="M8.94175 21.6546C14.316 23.9692 21.5768 25.4254 29.1075 25.4254C36.6383 25.4254 43.8991 23.9692 49.2733 21.6546C51.9607 20.4972 54.1709 19.1275 55.7076 17.6226C57.2443 16.1176 58.0998 14.4854 58.0998 12.7993C58.0998 11.0983 57.2369 9.45496 55.6909 7.94161C54.145 6.42827 51.9235 5.05295 49.2288 3.89183C43.8396 1.5698 36.5788 0.113636 29.1075 0.113636C21.6364 0.113636 14.3756 1.58462 8.98644 3.9141C6.29162 5.07894 4.07011 6.45615 2.52407 7.9668C0.977928 9.47754 0.115242 11.1134 0.115242 12.7993C0.115242 14.4854 0.970761 16.1176 2.50746 17.6226C4.04414 19.1275 6.25442 20.4972 8.94175 21.6546ZM0 12.7993C0 19.7049 14.0191 25.539 29.1075 25.539C44.1959 25.539 58.2151 19.7049 58.2151 12.7993C58.2151 5.83412 44.0771 0 29.1075 0C14.138 0 0 5.89364 0 12.7993Z" transform="translate(2.76587 2.61363) scale(0.969996)" fill="url(#paint7_linear)"/>
<path fill-rule="evenodd" clip-rule="evenodd" d="M8.90542 21.5548C14.2576 23.8587 21.4888 25.3082 28.9887 25.3082C36.4887 25.3082 43.7198 23.8587 49.0721 21.5548C51.7484 20.4027 53.9496 19.0393 55.4799 17.5413C57.0103 16.0433 57.8622 14.4188 57.8622 12.7406C57.8622 11.0476 57.0029 9.41192 55.4633 7.90557C53.9237 6.39923 51.7114 5.03024 49.0277 3.87447C43.6606 1.56311 36.4295 0.113636 28.9887 0.113636C21.5482 0.113636 14.3171 1.57786 8.94993 3.89663C6.26614 5.05612 4.05375 6.42698 2.51408 7.93064C0.974301 9.43441 0.115242 11.0626 0.115242 12.7406C0.115242 14.4188 0.967164 16.0433 2.49753 17.5413C4.02789 19.0393 6.22909 20.4027 8.90542 21.5548ZM0 12.7406C0 19.6145 13.9619 25.4218 28.9887 25.4218C44.0155 25.4218 57.9775 19.6145 57.9775 12.7406C57.9775 5.80736 43.8972 0 28.9887 0C14.0802 0 0 5.86661 0 12.7406Z" transform="translate(2.8811 2.61363) scale(0.969996)" fill="url(#paint8_linear)"/>
<path d="M4.51772 3.33411L3.77965 6.22261L2.28338 6.1831L3.66367 1.59632C3.7375 1.45542 4.14871 1.78419 4.2225 1.99556L4.51772 3.33411ZM5.55106 8.26566H3.33681L2.96776 9.88603H0.901119L0 9.01654L0.401498 8.60238L1.70314 8.43115L2.28338 7.15538L5.19246 7.02393L5.55106 8.26566ZM6.21535 9.88603L5.31426 9.01654L5.64984 8.60238L7.02128 8.76614L4.6746 0.267777L5.0915 0L5.99391 0.868307L8.28195 9.88603L6.21535 9.88603Z" transform="translate(29.8552 11.139) scale(0.969996)" fill="#181715"/>
<path d="M2.37571 2.48924H0.899531L0 1.61828L0.242565 1.43888L2.36125 1.41979L2.37571 2.48924ZM2.81856 9.95707L1.91714 9.08805L2.21085 8.72616L3.40813 8.79228L3.64347 1.5012L5.01524 1.30445L5.48328 0.315119L5.82712 0L6.7304 0.868888V2.48925H4.73758V9.95709L2.81856 9.95707Z" transform="translate(37.3743 11.1385) scale(0.969996)" fill="#181715"/>
<path d="M2.377 2.48912H0.900816L0 1.61957L0.22186 1.39342L2.377 1.31642V2.48912ZM2.81984 9.95695L1.91901 9.08751L2.23104 8.77565L3.71914 8.892L3.63056 1.40357L5.11564 1.28642L5.41265 0.349206L5.82909 -2.32514e-07L6.73168 0.868772V2.48914H4.81265V9.95697L2.81984 9.95695Z" transform="translate(44.2461 11.1385) scale(0.969996)" fill="#181715"/>
<path d="M0.693285 7.6092L0 6.94034L0.325057 6.71562H1.28522L1.29451 0.026065L1.47562 0L2.17035 0.668304V7.6092H0.693285Z" transform="translate(51.334 11.139) scale(1.26023)" fill="#181715"/>
<path d="M1.18878 0.336983L1.44636 0L2.34895 0.868277V7.34978C2.34895 7.49068 2.34895 7.70205 2.42278 7.77248C1.83232 7.70205 1.15377 7.07681 1.15377 6.51318L1.18878 0.336983ZM3.30846 10.0974C2.57039 10.0974 1.97993 9.88599 1.31565 9.39282C0.872807 9.04059 0.0914746 8.24534 0.0176864 8.10441C-0.0713508 7.93435 0.208525 8.12473 0.1347 7.98382L0.208525 7.91336C0.65137 8.75879 1.31565 8.99465 2.34895 8.99465C3.82513 8.99465 5.07987 7.79698 5.07987 6.38796L4.6953 0.27467L5.28434 0L6.187 0.868271V7.34977C6.187 8.8997 4.85843 10.0974 3.30846 10.0974Z" transform="translate(15.7788 11.139) scale(0.969996)" fill="#181715"/>
<path d="M4.66297 4.34784L5.27658 3.99284L6.17933 4.86111V7.04508C6.17933 8.73592 5.21981 9.79268 3.22697 9.79268C2.56272 9.79268 1.97223 9.58131 1.30798 9.08814C0.865103 8.73591 0.0738256 7.92736 0 7.78643C0 7.71599 0.200856 7.82005 0.053241 7.60868H0.200855C0.6437 8.38364 1.35482 8.41551 2.38812 8.41551C4.23335 8.41551 4.99567 7.86575 4.99567 6.31582L4.66297 4.34784ZM4.03886 6.27011H3.52223L2.62061 5.40095L2.91709 5.08268L4.03886 5.42471L4.03886 6.27011ZM3.966 2.20408C3.76015 2.15008 3.54674 2.04306 3.30079 2.04306C2.71033 2.04306 2.26749 2.53623 2.26749 3.09983V7.0451C2.26749 7.25647 2.34128 7.4678 2.48889 7.6087C1.82461 7.46779 1.07854 6.97434 1.07854 6.4107L1.17054 2.2559C1.17054 1.62183 1.61339 1.05819 2.35146 0.987762C3.01574 0.917296 3.89218 1.57005 3.966 2.20408ZM6.17933 3.24073H4.48174L3.58081 2.37149L3.91903 2.2559H5.17377C5.17377 1.19913 4.92458 0.563596 4.03886 0.140899L4.18648 0C4.33409 0.0704309 4.33754 0.0544425 4.48516 0.124875C4.73814 0.327265 5.0722 0.634061 5.36743 0.915863C5.58883 1.19766 5.73648 1.33856 5.88409 1.62036C6.1055 2.11353 6.17932 2.53623 6.17932 3.09983L6.17933 3.24073Z" transform="translate(23.4468 11.4346) scale(0.969996)" fill="#181715"/>
<path d="M4.41946 -5.96935e-06C4.98704 0.26922 5.70578 1.08961 6.06772 1.60778C6.36299 2.03048 6.5106 2.52365 6.5106 2.87591C6.5106 3.50994 6.14155 4.35538 5.62488 4.77808L5.99393 5.13034C6.43678 5.55304 6.732 6.11664 6.732 6.96208C6.732 8.15974 5.77249 9.56874 4.29635 9.56874H0.90113L0 8.69973L0.442605 8.35524H3.52542C4.85395 8.35524 5.36508 7.4148 5.36508 6.28761C5.36508 5.23084 5.32965 4.63718 4.73919 4.35538L4.22252 4.08709L4.48294 3.85409C4.99961 3.57229 5.15505 2.74015 5.15505 2.17652C5.15505 1.47202 4.93228 0.647163 4.37013 0.269221L4.41946 -5.96935e-06ZM2.82017 1.96005V3.65088H1.7607L1.82716 0.980674H2.88451C3.47497 0.980674 3.92729 1.46688 4.07491 2.10095C3.92729 1.96005 3.77968 1.96005 3.55824 1.96005H2.82017ZM2.82017 5.55305V7.73701H1.59558L1.64726 4.44609L3.22732 4.59899C3.67016 4.59899 4.07491 5.13035 4.22252 5.69395C4.14873 5.55305 4.00112 5.55305 3.85347 5.55305L2.82017 5.55305Z" transform="translate(7.87598 11.4468) scale(0.969996)" fill="#181715"/>
<path d="M1.91904 5.00203V7.60872H2.95238C3.54284 7.60872 3.91189 6.97465 3.91189 6.27015C3.91189 5.56562 3.39522 5.00202 2.95238 5.00202H1.91904V5.00203ZM1.91904 1.40903V3.52256H2.65715C3.3214 3.52256 3.61663 3.17029 3.61663 2.4658C3.61663 1.7613 3.17378 1.40903 2.65715 1.40903H1.91904ZM4.64996 4.29753C5.31424 4.57933 5.83087 5.28383 5.83087 6.41106C5.83087 7.60873 4.87136 9.01773 3.39522 9.01773H0V0H3.17377C4.87136 0 5.60947 1.40903 5.60947 2.39533C5.60947 2.95896 5.24041 3.94526 4.64995 4.29753H4.64996Z" transform="translate(7.87524 11.1389) scale(0.969996)" fill="url(#paint9_linear)"/>
<path d="M3.91184 6.4815V0H5.83087V6.4815C5.83087 8.03143 4.50234 9.22909 2.95233 9.22909C1.32857 9.22909 0 8.03143 0 6.4815V0H1.99281V6.4815C1.99281 6.97466 2.36187 7.39737 2.95232 7.39737C3.54282 7.39737 3.91184 6.97466 3.91184 6.4815H3.91184Z" transform="translate(15.2495 11.1389) scale(0.969996)" fill="url(#paint10_linear)"/>
<path d="M4.13328 6.69282V5.91785H3.17377V4.50885H5.83087V6.69282C5.83087 8.38365 4.94518 9.44041 2.95233 9.44041C1.32857 9.44041 0 8.24275 0 6.69282V2.7476C0 1.19766 1.32857 0 2.95233 0C4.94518 0 5.83087 1.05676 5.83087 2.7476V2.8885H4.13328V2.7476C4.13328 2.11353 3.61662 1.62037 2.95233 1.69083C2.36187 1.69083 1.91903 2.18396 1.91903 2.7476V6.69282C1.91903 7.18598 2.36188 7.67915 2.95233 7.74958C3.61662 7.74958 4.13328 7.32688 4.13328 6.69282Z" transform="translate(22.9099 10.934) scale(0.969996)" fill="url(#paint11_linear)"/>
<path d="M4.64991 5.777L3.76423 1.76132L2.80472 5.777H4.64991ZM0 9.01772L2.43566 0H5.09275L7.30701 9.01772H5.31419L4.94514 7.39736H2.43566L2.0666 9.01772H0Z" transform="translate(29.8545 11.1389) scale(0.969996)" fill="url(#paint12_linear)"/>
<path d="M2.95413 6.99513H1.47706V1.2472H0V0H4.48793V1.2472H2.95413V6.99513Z" transform="translate(37.3721 11.1389) scale(1.26023)" fill="url(#paint13_linear)"/>
<path d="M3.01087 6.99513H1.47707V1.2472H0V0H4.48793V1.2472H3.01087V6.99513Z" transform="translate(44.2451 11.1389) scale(1.26023)" fill="url(#paint14_linear)"/>
<path d="M0 0H1.47707V6.9409H0V0Z" transform="translate(51.3328 11.1389) scale(1.26023)" fill="url(#paint15_linear)"/>
<path d="M6.05227 4.72019C6.49515 4.72019 6.79038 4.36796 6.79038 3.94523C6.79038 3.59299 6.49515 3.24073 6.05227 3.24073H4.5023V4.72019H6.05227ZM6.05227 2.18396C6.42132 2.18396 6.71655 1.90216 6.71655 1.5499C6.71655 1.19766 6.42132 0.915866 6.05227 0.915866H4.5023V2.18396H6.05227ZM2.28804 3.24073V3.59299H1.32853V3.24073V2.18396V1.8317H2.28804V2.18396H3.24755V0.915866H0.959512V1.33857H0V0.915866V0H6.05226C6.93798 0 7.74988 0.704499 7.74988 1.62037C7.74988 2.04307 7.60226 2.39533 7.307 2.67713C7.60226 3.02939 7.82367 3.45209 7.82367 3.87479C7.82367 4.86109 7.01177 5.63606 6.05226 5.63606H0V4.72019V4.22706H0.959512V4.72019H3.24755V3.24073H2.28804V3.24073Z" transform="translate(27.2058 4.10022) scale(0.969996)" fill="#1C151D"/>
<path fill-rule="evenodd" clip-rule="evenodd" d="M4.32943 3.07027H6.05227C6.5965 3.07027 6.96324 3.50476 6.96324 3.94523C6.96324 4.4455 6.60662 4.89065 6.05227 4.89065H4.32943V3.07027ZM4.32943 0.745411H6.05227C6.51144 0.745411 6.88941 1.09833 6.88941 1.5499C6.88941 2.00149 6.51145 2.35442 6.05227 2.35442H4.32943V0.745411ZM2.28804 2.18396V1.8317H1.32853V3.59299H2.28804V3.24073L3.24755 3.24073V4.72019H0.959512V4.22706H0V5.63606H6.05226C7.01177 5.63606 7.82367 4.86109 7.82367 3.87479C7.82367 3.45209 7.60226 3.02939 7.307 2.67713C7.60226 2.39533 7.74988 2.04307 7.74988 1.62037C7.74988 0.704499 6.93798 0 6.05226 0H0V1.33857H0.959512V0.915866H3.24755V2.18396H2.28804ZM0.78665 1.16811V0.745411H3.42042V2.35442H2.11518V2.00215H1.50139V3.42254H2.11518V3.07027H3.42042V4.89064H0.78665V4.39751H0.172862V5.4656H6.05226C6.91701 5.4656 7.6508 4.76625 7.6508 3.87479C7.6508 3.50828 7.45666 3.12324 7.17376 2.78572L7.07194 2.66425L7.18678 2.55465C7.4468 2.30649 7.57702 1.99914 7.57702 1.62037C7.57702 0.808502 6.85283 0.170455 6.05226 0.170455H0.172862V1.16811H0.78665ZM4.5023 4.72019V3.24073H6.05227C6.49515 3.24073 6.79038 3.59299 6.79038 3.94523C6.79038 4.36796 6.49515 4.72019 6.05227 4.72019H4.5023ZM6.05227 2.18396C6.42132 2.18396 6.71655 1.90216 6.71655 1.5499C6.71655 1.19766 6.42132 0.915866 6.05227 0.915866H4.5023V2.18396H6.05227Z" transform="translate(27.2058 4.10022) scale(0.969996)" fill="url(#paint16_linear)"/>
<defs>
<linearGradient id="paint0_linear" x2="1" gradientUnits="userSpaceOnUse" gradientTransform="translate(63.1801) scale(63.1801 30.2235) rotate(90)">
<stop stop-color="#F70021"/>
<stop offset="0.331492" stop-color="#E40321"/>
<stop offset="0.635359" stop-color="#B6171C"/>
<stop offset="0.977901" stop-color="#AF191B"/>
</linearGradient>
<linearGradient id="paint1_linear" x2="1" gradientUnits="userSpaceOnUse" gradientTransform="translate(63.9178) scale(63.9178 30.928) rotate(90)">
<stop stop-color="#AC0913"/>
<stop offset="1" stop-color="#6C0000"/>
</linearGradient>
<linearGradient id="paint2_linear" x2="1" gradientUnits="userSpaceOnUse" gradientTransform="translate(63.5551 0.227267) scale(63.4426 30.4593) rotate(90)">
<stop offset="0.0662983" stop-color="#CF0004"/>
<stop offset="0.922652" stop-color="#9D0101"/>
</linearGradient>
<linearGradient id="paint3_linear" x2="1" gradientUnits="userSpaceOnUse" gradientTransform="translate(63.9178) scale(63.9178 30.928) rotate(90)">
<stop offset="0.138122" stop-color="#EDEBEC"/>
<stop offset="0.740331" stop-color="#69707E"/>
</linearGradient>
<linearGradient id="paint4_linear" x2="1" gradientUnits="userSpaceOnUse" gradientTransform="matrix(18.9496 -20.4429 36.7789 33.1491 -21.5972 19.3323)">
<stop offset="0.353591" stop-color="#434F53"/>
<stop offset="1" stop-color="#47524B" stop-opacity="0"/>
</linearGradient>
<linearGradient id="paint5_linear" x2="1" gradientUnits="userSpaceOnUse" gradientTransform="matrix(-19.009 -17.8656 36.9222 -38.1984 45.4567 52.4288)">
<stop stop-color="#434F53"/>
<stop offset="1" stop-color="#434F53" stop-opacity="0"/>
</linearGradient>
<linearGradient id="paint6_linear" x2="1" gradientUnits="userSpaceOnUse" gradientTransform="translate(63.9178) scale(63.9178 30.928) rotate(90)">
<stop stop-color="white"/>
<stop offset="1" stop-color="#AEB1BA"/>
</linearGradient>
<linearGradient id="paint7_linear" x2="1" gradientUnits="userSpaceOnUse" gradientTransform="translate(58.2151) scale(58.2151 25.539) rotate(90)">
<stop stop-color="#E3EFE5"/>
<stop offset="0.403315" stop-color="#A0ADAD"/>
</linearGradient>
<linearGradient id="paint8_linear" x2="1" gradientUnits="userSpaceOnUse" gradientTransform="translate(57.9775) scale(57.9775 25.4218) rotate(90)">
<stop stop-color="#880201"/>
<stop offset="0.723757" stop-color="#970506"/>
</linearGradient>
<linearGradient id="paint9_linear" x2="1" gradientUnits="userSpaceOnUse" gradientTransform="translate(5.83087) scale(5.83087 9.01773) rotate(90)">
<stop stop-color="#FAF8F9"/>
<stop offset="1" stop-color="#F2F2F2"/>
</linearGradient>
<linearGradient id="paint10_linear" x2="1" gradientUnits="userSpaceOnUse" gradientTransform="translate(5.83087) scale(5.83087 9.22909) rotate(90)">
<stop stop-color="#FAF8F9"/>
<stop offset="1" stop-color="#F2F2F2"/>
</linearGradient>
<linearGradient id="paint11_linear" x2="1" gradientUnits="userSpaceOnUse" gradientTransform="translate(5.83087) scale(5.83087 9.44041) rotate(90)">
<stop stop-color="#FAF8F9"/>
<stop offset="1" stop-color="#F2F2F2"/>
</linearGradient>
<linearGradient id="paint12_linear" x2="1" gradientUnits="userSpaceOnUse" gradientTransform="translate(7.30701) scale(7.30701 9.01772) rotate(90)">
<stop stop-color="#FAF8F9"/>
<stop offset="1" stop-color="#F2F2F2"/>
</linearGradient>
<linearGradient id="paint13_linear" x2="1" gradientUnits="userSpaceOnUse" gradientTransform="translate(4.48793) scale(4.48793 6.99513) rotate(90)">
<stop stop-color="#FAF8F9"/>
<stop offset="1" stop-color="#F2F2F2"/>
</linearGradient>
<linearGradient id="paint14_linear" x2="1" gradientUnits="userSpaceOnUse" gradientTransform="translate(4.48793) scale(4.48793 6.99513) rotate(90)">
<stop stop-color="#FAF8F9"/>
<stop offset="1" stop-color="#F2F2F2"/>
</linearGradient>
<linearGradient id="paint15_linear" x2="1" gradientUnits="userSpaceOnUse" gradientTransform="translate(1.47707) scale(1.47707 6.9409) rotate(90)">
<stop stop-color="#FAF8F9"/>
<stop offset="1" stop-color="#F2F2F2"/>
</linearGradient>
<linearGradient id="paint16_linear" x2="1" gradientUnits="userSpaceOnUse" gradientTransform="translate(7.82367) scale(7.82367 5.63606) rotate(90)">
<stop stop-color="#D8DED8"/>
<stop offset="1" stop-color="#A1A6A0"/>
</linearGradient>
</defs>
</svg>
