<svg width="68" height="16" viewBox="0 0 68 16" fill="none" xmlns="http://www.w3.org/2000/svg">
<path d="M9.46087 11.3276C11.638 11.3276 13.4029 9.63707 13.4029 7.55172C13.4029 5.46637 11.638 3.77586 9.46087 3.77586C7.86483 3.77586 6.49033 4.68438 5.87031 5.99096C5.01903 4.95893 4.00084 3.93522 2.77084 3.5541C4.16389 1.41975 6.63928 0 9.46087 0C13.8151 0 17.3449 3.38102 17.3449 7.55172C17.3449 9.14797 16.8279 10.6285 15.9454 11.8482L16.9152 12.7771C17.685 13.5144 17.685 14.7098 16.9152 15.447C16.1455 16.1843 14.8975 16.1843 14.1278 15.447L12.9546 14.3233C11.9016 14.8227 10.7155 15.1034 9.46087 15.1034C6.63154 15.1034 4.15031 13.6759 2.7594 11.5318C3.92532 11.1339 4.97733 10.1104 5.85711 9.08435C6.47066 10.406 7.8534 11.3276 9.46087 11.3276Z" fill="#05B0FA"/>
<path d="M18.7246 7.55172C18.7246 11.7224 22.2545 15.1034 26.6087 15.1034C30.9629 15.1034 34.4928 11.7224 34.4928 7.55172V1.88793C34.4928 0.845259 33.6103 0 32.5217 0C31.4332 0 30.5507 0.845259 30.5507 1.88793V7.55172C30.5507 9.63707 28.7858 11.3276 26.6087 11.3276C24.4316 11.3276 22.6667 9.63707 22.6667 7.55172L22.6667 1.88793C22.6667 0.845259 21.7842 0 20.6957 0C19.6071 0 18.7246 0.845259 18.7246 1.88793V7.55172Z" fill="#05B0FA"/>
<path fill-rule="evenodd" clip-rule="evenodd" d="M43.3623 15.1034C47.7166 15.1034 51.2464 11.7224 51.2464 7.55172C51.2464 3.38102 47.7166 0 43.3623 0C39.0081 0 35.4783 3.38102 35.4783 7.55172C35.4783 11.7224 39.0081 15.1034 43.3623 15.1034ZM43.3623 11.3276C45.5394 11.3276 47.3043 9.63707 47.3043 7.55172C47.3043 5.46637 45.5394 3.77586 43.3623 3.77586C41.1852 3.77586 39.4203 5.46637 39.4203 7.55172C39.4203 9.63707 41.1852 11.3276 43.3623 11.3276Z" fill="#05B0FA"/>
<path d="M60.1159 0C64.4702 0 68 3.38102 68 7.55172V13.2155C68 14.2582 67.1175 15.1034 66.029 15.1034C64.9404 15.1034 64.058 14.2582 64.058 13.2155V7.55172C64.058 5.46637 62.2931 3.77586 60.1159 3.77586C57.9388 3.77586 56.1739 5.46637 56.1739 7.55172V13.2155C56.1739 14.2582 55.2915 15.1034 54.2029 15.1034C53.1143 15.1034 52.2319 14.2582 52.2319 13.2155V7.55172C52.2319 3.38102 55.7617 0 60.1159 0Z" fill="#05B0FA"/>
<path d="M9.65797 9.62844C8.59604 9.62844 7.58841 8.30689 7.09565 7.55172C7.58841 6.79655 8.4995 5.475 9.65797 5.475C10.7199 5.475 11.8261 6.10284 11.8261 7.55172C11.8261 9.0006 10.7199 9.62844 9.65797 9.62844Z" fill="#05B0FA"/>
<path d="M4.73043 7.55172C4.23768 8.30689 3.23005 9.62844 2.16812 9.62844C1.10618 9.62844 0 9.0006 0 7.55172C0 6.10284 1.10618 5.475 2.16812 5.475C3.32659 5.475 4.23768 6.79655 4.73043 7.55172Z" fill="#05B0FA"/>
</svg>
